<?xml version="1.0" encoding="UTF-8"?>
<svg width="337px" height="178px" viewBox="0 0 337 178" version="1.1" xmlns="http://www.w3.org/2000/svg" xmlns:xlink="http://www.w3.org/1999/xlink">
    <!-- Generator: Sketch 52.6 (67491) - http://www.bohemiancoding.com/sketch -->
    <title>Instruments</title>
    <desc>Created with Sketch.</desc>
    <g id="Instruments" stroke="none" stroke-width="1" fill="none" fill-rule="evenodd">
        <g id="Group" fill="#fff">
            <path d="M233.189324,97.5288895 L270.65881,97.1649574 C270.65881,97.1649574 264.173338,106.196902 253.351438,106.389135 C242.528739,106.58226 233.189324,97.5288895 233.189324,97.5288895 Z M229.749096,98.3460258 C229.749096,98.3460258 231.482389,99.891324 234.359097,101.780319 L234.79282,120.586059 L229.734719,120.584274 L229.749096,98.3460258 Z M255.963359,108.4903 C258.168715,108.317707 260.402027,107.824331 262.614972,106.909888 L262.930878,120.597069 L256.661069,120.594391 L255.963359,108.4903 Z M249.126436,108.080541 C250.90366,108.415311 252.737197,108.594153 254.599489,108.556956 L254.877055,120.593796 L249.58452,120.592011 L249.126436,108.080541 Z M242.060271,105.914505 C243.394187,106.473348 244.800391,106.981008 246.26131,107.398801 L246.901111,120.59082 L242.90575,120.58963 L242.060271,105.914505 Z M235.760109,102.668278 C237.196666,103.547012 238.844093,104.457289 240.650073,105.292577 L241.003121,120.58844 L236.792896,120.58725 L235.760109,102.668278 Z M274.763999,96.3409769 L274.748024,120.601235 L270.270217,120.59945 L269.604057,102.398677 C271.385276,100.772439 273.114974,98.7736386 274.763999,96.3409769 Z M263.958873,106.30135 C264.920571,105.826721 265.876279,105.267581 266.821602,104.61649 L267.64911,120.598855 L264.783186,120.597665 L263.958873,106.30135 Z M228.054942,122.687819 C227.837282,122.687819 227.65916,122.557185 227.655965,122.394412 C227.65277,122.230152 227.828895,122.095053 228.04975,122.092673 L274.758408,121.596321 C274.984056,121.590964 275.160181,121.72517 275.163376,121.88943 C275.166571,122.053988 274.990046,122.189087 274.769591,122.191467 L228.060932,122.687819 L228.054942,122.687819 Z M231.299874,96.7343688 C239.038589,103.633903 246.538877,107.131878 253.600649,107.131878 C264.457694,107.131878 271.102917,98.7361444 272.532284,96.7343688 L231.299874,96.7343688 Z M260.266037,151.901333 C260.518657,151.678097 260.89665,151.536269 261.318995,151.536269 C262.079408,151.536269 262.695646,151.99602 262.695646,152.562897 C262.695646,153.129477 262.079408,153.588632 261.318995,153.588632 C260.558583,153.588632 259.941946,153.129477 259.941946,152.562897 C259.941946,152.542482 259.942746,152.522205 259.944323,152.502084 L250.951985,145.842136 L250.951985,156.626377 C251.655132,156.672443 252.206426,157.112234 252.206426,157.648127 C252.206426,158.215004 251.590188,158.67416 250.829776,158.67416 C250.069363,158.67416 249.452726,158.215004 249.452726,157.648127 C249.452726,157.264748 249.735062,156.930554 250.153232,156.754518 L250.153232,146.069521 L242.135024,154.588615 C242.366785,154.772175 242.50877,155.019385 242.50877,155.291347 C242.50877,155.858224 241.892533,156.31738 241.13212,156.31738 C240.371707,156.31738 239.75507,155.858224 239.75507,155.291347 C239.75507,154.724767 240.371707,154.265612 241.13212,154.265612 C241.237694,154.265612 241.34049,154.274462 241.439243,154.291222 L250.153232,145.033102 L250.153232,134.913527 L250.153232,122.15482 L250.951985,122.15482 L250.951985,145.003116 L260.266037,151.901333 Z M253.600649,107.727024 C246.123525,107.727024 238.23105,103.991884 230.142482,96.6251594 C230.044635,96.536185 230.024266,96.4132872 230.090563,96.3091365 C230.15646,96.205581 230.29744,96.1392222 230.451599,96.1392222 L273.184865,96.1392222 C273.321452,96.1392222 273.448454,96.1912975 273.521939,96.2772962 C273.595025,96.3632949 273.60461,96.4710164 273.546301,96.5632641 C273.476011,96.6748541 266.366713,107.727024 253.600649,107.727024 Z" id="drum"></path>
            <path d="M274.603734,102.530207 C275.460295,103.976727 275.037979,105.717953 273.737629,106.533309 C272.437279,107.348665 270.88163,106.942215 270.025069,105.495695 C269.168508,104.049175 269.336719,102.109021 270.637069,101.293666 C271.937419,100.47831 273.748366,101.083687 274.603734,102.530207 Z M283.094186,100.443927 C284.215589,100.65145 284.884852,101.755373 284.680852,102.921921 C284.478045,104.087242 283.546326,104.803134 282.424923,104.596839 C281.30352,104.389316 280.415942,103.336967 280.619941,102.171647 C280.822748,101.005098 281.972783,100.236404 283.094186,100.443927 Z M287.827938,106.269301 C288.949341,106.476824 289.618604,107.580747 289.414604,108.747295 C289.211797,109.912615 288.280078,110.629736 287.158675,110.422213 C286.037272,110.21469 285.149694,109.162341 285.353694,107.99702 C285.556501,106.830472 286.706535,106.061778 287.827938,106.269301 Z M293.660427,113.352091 C294.78183,113.559614 295.451092,114.664765 295.247093,115.830085 C295.044286,116.996633 294.112567,117.712525 292.991164,117.505003 C291.869761,117.29748 290.982182,116.246358 291.186182,115.07981 C291.388989,113.91449 292.539024,113.145796 293.660427,113.352091 Z M298.823652,119.655135 C299.945055,119.86143 300.614318,120.966581 300.411511,122.131902 C300.207511,123.29845 299.276985,124.014342 298.154389,123.806819 C297.032986,123.600524 296.146601,122.548175 296.349408,121.381627 C296.552215,120.216306 297.702249,119.447613 298.823652,119.655135 Z M312.819716,148.536415 C314.32168,149.894522 314.567435,152.134295 313.368488,153.540293 C312.169541,154.945062 310.057963,155.218894 308.555999,153.862015 C307.054034,152.503907 306.729543,150.029596 307.92849,148.623599 C309.127437,147.217601 311.316559,147.178307 312.819716,148.536415 Z M289.974113,99.7575056 C307.687508,86.781805 323.160483,96.5280088 323.160483,96.5280088 L315.836767,105.419563 C315.836767,105.419563 325.111009,133.857554 327.046025,136.901631 C328.981042,139.945708 330.679848,145.627412 328.218726,149.103725 C326.196622,151.959927 318.531713,154.258641 314.204768,153.493631 C315.731785,151.570668 315.437118,149.050924 313.60947,147.399337 C311.798524,145.763714 309.157262,145.581978 307.497824,147.342852 C300.388845,138.71899 286.34029,121.147089 274.929418,106.87345 C275.175172,106.69417 275.405418,106.487875 275.612996,106.244742 C277.036224,104.575964 276.532785,101.566269 274.911523,100.10133 C273.378541,98.7149799 271.430402,99.2601877 269.982122,100.684605 C262.957844,91.902338 257.797005,85.4666753 257.449847,85.1535492 C256.340374,84.1503177 254.308726,84.6476357 254.271743,86.1678322 C254.233568,87.6880288 257.063321,98.5369278 256.314128,99.4149088 C255.566128,100.29289 244.220871,100.664957 244.220871,100.664957 L243.05652,99.6113801 C243.05652,99.6113801 251.637639,97.5201889 252.243674,96.5132735 C252.850902,95.5075861 248.384377,84.2153988 249.153851,81.5421614 C249.923324,78.8701518 255.980093,75.0156308 258.805074,77.3094331 C259.996863,78.2770541 269.411876,89.1615635 279.96738,101.448387 C279.373275,102.501964 279.794398,104.03444 280.717766,104.868215 C281.471731,105.550953 282.278186,105.525166 283.144291,105.148187 C283.73601,105.835836 284.327729,106.525942 284.920641,107.217275 C284.901554,107.236922 284.881273,107.256569 284.862185,107.277444 C283.941203,108.358036 283.732431,109.745615 284.782255,110.693589 C285.688922,111.512628 287.316149,111.802424 288.251447,111.100039 C289.117552,112.10941 289.978884,113.113869 290.831867,114.107277 C290.023025,115.186641 290.142323,116.829633 291.151586,117.740768 C291.993831,118.502094 293.201129,118.492271 294.117339,117.93724 C294.805689,118.739088 295.484496,119.529885 296.152566,120.307174 C296.101268,120.35752 296.051162,120.409094 296.003443,120.464351 C295.082461,121.544944 295.389057,122.947257 296.440074,123.896459 C297.381337,124.747426 298.55881,124.989331 299.49888,124.20099 C306.317965,132.127378 311.305822,137.869252 311.562313,137.938017 C312.380699,138.159047 315.247434,136.863564 315.445469,135.746134 C315.642311,134.629931 302.285686,107.746519 302.285686,107.746519 L289.974113,99.7575056 Z" id="sax"></path>
            <path d="M58.9809025,120.648168 C56.7559264,117.707792 55.8924105,114.433059 52.8789393,113.077287 C45.7586383,109.874317 42.5594943,121.509404 31.4843734,116.484155 C19.9089509,111.23054 20.4986335,98.3988546 24.8399973,88.6745974 C29.1825219,78.9491751 38.3330489,69.9682771 49.9421343,75.1449935 C61.0497574,80.098003 54.5261038,90.2382151 61.6464048,93.4411846 C66.388242,95.5745556 71.1219536,90.5562983 78.4210166,94.4804893 C85.7200796,98.4046803 83.8918315,105.526015 81.3171938,110.52097 L110.587737,125.131823 L111.792639,122.848149 L114.800252,123.703362 L115.348146,121.296183 L114.622651,121.166853 L114.528627,119.817621 L117.481683,120.346594 L116.804941,121.557174 L116.079446,121.427844 L115.51414,123.906096 L118.402191,124.726355 L119.466638,122.342479 L118.798022,122.041873 L118.980266,120.677494 L121.701164,121.902056 L120.808514,122.946021 L120.139898,122.645415 L119.119561,124.930254 L122.172445,125.798283 L123.554949,123.557719 L122.944372,123.148755 L123.310022,121.81234 L125.7976,123.47849 L124.781907,124.379143 L124.17133,123.970179 L122.913031,126.009174 L125.218365,126.663982 C125.218365,126.663982 125.076748,131.635634 124.185259,133.363536 C123.493427,135.18232 119.890327,138.59618 119.890327,138.59618 L117.869388,137.305205 L117.190324,139.604026 L117.90189,139.789283 L117.907694,141.150166 L115.013838,140.395156 L115.76371,139.232346 L116.474115,139.417603 L117.219344,136.890415 L114.543717,135.17999 L113.52222,137.465994 L114.190836,137.7666 L114.008592,139.129814 L111.287694,137.906417 L112.180344,136.862451 L112.84896,137.163058 L113.913407,134.778016 L111.381719,133.161967 L109.914477,135.233586 L110.493712,135.691486 L110.044486,137.003433 L107.685755,135.14387 L108.751363,134.316621 L109.330598,134.773356 L110.754891,132.761159 L108.118731,131.076367 L109.014863,128.654041 L78.4570012,116.925743 C76.6693808,121.700487 72.5915169,127.809315 64.8153682,124.952392 C61.9810172,123.911064 60.2570299,122.33461 58.9809025,120.648168 Z M52.7361618,101.223154 C51.1702528,104.73139 52.4297126,108.712673 55.5510835,110.115501 C58.6712937,111.519495 62.4705674,109.81373 64.0364764,106.306659 C65.6023855,102.798423 64.3429256,98.8171399 61.2227155,97.4131463 C58.1013446,96.0091528 54.3020708,97.7149176 52.7361618,101.223154 Z" id="guitar" transform="translate(73.883612, 107.390287) rotate(245.000000) translate(-73.883612, -107.390287) "></path>
            <path d="M28.7371419,161.849482 C28.7371419,161.849482 40.8202451,150.528979 56.2588018,161.865757 C56.2588018,161.865757 47.6734694,167.405108 28.7371419,161.849482 Z M32.2916083,132.09509 C29.4232742,131.907926 27.821913,129.372496 26.9066842,125.60132 L39.0869799,125.719896 L39.0742523,129.152782 C37.6591766,130.501291 35.2096957,132.285741 32.2916083,132.09509 Z M25.9046764,118.198469 L39.1135921,118.564659 L39.0973934,122.867101 L26.4079944,123.036827 C26.1788979,121.533704 26.0192246,119.903868 25.9046764,118.198469 Z M26.0226958,109.974887 L39.1436755,110.803755 L39.1286338,114.679557 L25.7785576,115.216636 C25.7554166,113.426374 25.8340962,111.646574 26.0226958,109.974887 Z M31.0026514,100.564385 C33.8663573,100.222608 37.2819774,103.324179 39.1645025,105.329505 L39.1598742,106.589664 L26.5040298,107.004679 C27.2908258,103.433455 28.7429271,100.832924 31.0026514,100.564385 Z M59.3469759,162.002933 L42.7687222,144.723414 L42.0710193,125.748958 L44.6952152,125.774534 L44.7229845,124.994491 L46.4469933,124.987516 L46.7536123,126.776616 L48.453323,127.097468 L48.2242265,122.081246 L46.0478101,122.659012 L46.2479802,123.828495 L44.7646384,123.83547 L44.8016641,122.790376 L41.9634134,122.828738 L41.8095253,118.639059 L44.187269,118.705322 L43.8575089,117.075486 L46.0871499,117.066186 L46.0489671,118.587909 L48.2843933,118.843661 L47.7914888,113.847201 L46.155416,114.411018 L46.1172332,115.906003 L43.6237843,115.916466 L43.3379922,114.509831 L41.6602655,114.577256 L41.5272044,110.954882 L43.5589893,111.08392 L43.6064285,108.894917 L45.8372264,108.885617 L45.7099506,110.677042 L47.9314922,111.072295 L47.687354,105.722433 L46.024669,106.233937 L45.9193772,107.725434 L43.6307266,107.734734 L43.6596529,106.442025 L41.36406,106.517588 L40.8109887,91.4584597 L43.9743713,86.0388473 L36.156165,86.4096874 L39.2177269,91.2968711 L39.1807012,101.140989 C38.2342319,99.7785295 35.9617801,97.1954367 32.1446626,96.8583094 C26.9309823,96.3979562 24.1933952,99.7878296 23.7814844,105.099329 C23.7409875,105.617807 23.7051189,106.295549 23.6796637,107.096517 L20.4804125,107.202306 L20.6100024,109.631947 L23.6310675,109.823761 C23.6229681,111.458248 23.6507374,113.328723 23.7282599,115.299174 L20.1552806,115.443325 L19.9273412,118.033393 L23.8752056,118.142669 C23.9804975,119.786455 24.1251291,121.451166 24.3171998,123.064727 L20.7847174,123.11239 L20.9143073,125.542032 L24.6654728,125.579232 C25.4013584,130.180439 26.6093216,133.976028 28.5381288,135.007172 C32.2707814,137.002036 36.6178291,136.557958 39.0545824,134.265492 L39.0094574,146.090524 L26.4797317,162.478399 C47.5068537,169.824287 59.3469759,162.002933 59.3469759,162.002933 L59.3469759,162.002933 Z" id="trumpet" transform="translate(39.637159, 125.831609) rotate(-144.000000) translate(-39.637159, -125.831609) "></path>
            <path d="M148.369024,87.2332225 L144.247239,89.4857865 L151.789131,107.808356 L159.831629,103.157947 L156.101316,96.8932233 L155.253135,97.4920563 L148.369024,87.2332225 Z M153.286792,84.5456518 L158.355545,95.3016916 L157.156741,96.1480718 L160.946705,102.513177 L167.567673,98.6847393 L154.855374,83.6884184 L153.286792,84.5456518 Z M135.952714,94.0187623 L141.1657,105.080267 L140.603203,105.477437 L145.375287,111.398054 L144.88145,111.80258 L150.664951,108.458389 L143.111454,90.1064954 L135.952714,94.0187623 Z M130.98971,96.7310542 L126.320294,99.2829001 L137.641472,115.988948 L144.311307,112.132253 L139.547896,106.222571 L138.062647,107.27128 L130.98971,96.7310542 Z M109.702387,108.364621 L114.928229,119.454009 L114.632839,119.662684 L118.517506,127.046987 L128.227855,121.432178 L116.758977,104.50818 L109.702387,108.364621 Z M104.734434,111.079618 L99.1948775,114.106998 L109.168934,132.452606 L117.401313,127.692403 L113.571888,120.41218 L111.825819,121.645669 L104.734434,111.079618 Z M85.2644595,121.720001 L79.9013281,124.650963 L91.9395643,142.415134 L97.6731156,139.099826 L93.5950576,132.132353 L92.6844374,132.77565 L85.2644595,121.720001 Z M90.3102397,118.962471 L95.7868475,130.583989 L94.650824,131.38652 L98.7845159,138.44883 L98.2710586,138.754078 L108.594098,132.784993 L108.04805,133.086615 L98.065006,114.724475 L90.3102397,118.962471 Z M78.7649648,125.271988 L76.3010389,126.618529 L85.728433,146.006592 L90.8207551,143.062062 L78.7649648,125.271988 Z M117.895341,103.887155 L129.346664,120.78525 L136.522201,116.636143 L125.183461,99.9041813 L117.895341,103.887155 Z M62.2720792,113.801559 L147.357668,63.605217 L174.411867,100.32897 L83.1722218,150.936694 L62.2720792,113.801559 Z" id="keyboard"></path>
            <path d="M127.427771,34.2390971 L126.884498,34.7015047 L195.920625,116.702364 L196.864145,115.899286 L153.763625,64.7046463 C157.105034,64.4802651 179.927005,63.591373 189.204737,80.2871106 C189.204737,80.2871106 181.049184,84.6225207 190.282607,93.3032562 C192.665266,95.5428463 198.684811,99.0044817 201.484313,91.0611873 C201.484313,91.0611873 213.741691,96.6719368 219.443055,107.98763 C225.144419,119.304563 225.53259,134.334509 214.276926,144.277096 C207.022018,150.491214 187.268518,150.565869 177.330903,142.746514 C167.394522,134.92592 164.300271,121.752371 164.300271,121.752371 C172.597649,120.536523 171.148568,114.19329 169.425703,111.409605 C162.747596,100.619416 156.170617,107.553841 156.170617,107.553841 C140.242871,95.8069823 148.895451,69.70769 148.895451,69.70769 L123.973882,37.5675803 L120.789603,38.0794512 C120.789603,38.0794512 115.826962,27.9994366 115.555645,26.7265761 C115.284327,25.4537155 116.666812,20.6535316 117.932138,20.1838002 C119.19623,19.7140688 125.252773,20.173885 125.923667,20.967099 C126.594561,21.7615523 127.67243,24.1126881 126.862178,25.0608267 C126.505766,25.4785035 123.465778,26.4055723 123.465778,26.4055723 C123.465778,26.4055723 125.265106,24.5080557 124.969123,23.7817692 C124.674374,23.056722 122.70609,21.6549642 122.093159,22.2089746 C121.478995,22.7617456 119.340521,25.1227966 120.454156,26.0820897 C121.56779,27.0426223 128.449385,31.9977309 128.449385,31.9977309 L127.427771,34.2390971 Z M179.884083,113.889744 C180.681323,113.693342 181.102325,112.685462 180.824821,111.637992 C180.547317,110.590523 179.675108,109.899754 178.877868,110.096155 C178.476911,110.194957 178.171681,110.497236 178.001797,110.907403 C177.401981,110.607784 176.235269,110.173416 174.84911,110.43395 C172.82332,110.813929 172.277416,114.217371 174.430032,116.362376 C176.582648,118.507381 179.41018,119.950836 180.077501,122.63891 C180.701777,125.151444 178.778561,125.963689 176.63734,125.594597 C176.625721,125.528749 176.618728,125.464201 176.600925,125.397452 C176.338742,124.411563 175.518432,123.762202 174.767946,123.9466 C174.016924,124.131965 173.620336,125.081331 173.882519,126.06722 C174.14368,127.052542 174.965012,127.70247 175.714476,127.517505 C176.124248,127.41727 176.423351,127.085051 176.572596,126.647011 C177.274099,127.083893 178.524178,127.693399 180.06122,127.695989 C182.460843,127.700188 183.347554,124.390858 181.956148,121.702105 C180.56372,119.012785 175.130443,115.417103 174.963189,113.080796 C174.841178,111.383871 176.807704,111.80528 177.89477,112.163899 C177.905952,112.225713 177.920251,112.286727 177.936594,112.348874 C178.214098,113.396343 179.086308,114.087113 179.884083,113.889744 Z M206.936308,102.407027 C207.219143,101.712719 206.69277,100.829457 205.762757,100.434907 C204.832136,100.039385 203.849867,100.2829 203.567033,100.977208 C203.284198,101.671516 203.810571,102.554778 204.740584,102.949328 C204.803418,102.976283 204.865987,102.992591 204.92854,103.012964 C205.001071,105.124423 203.945868,106.85407 201.569578,105.888912 C199.027041,104.856014 197.994341,101.929654 196.183518,99.5489788 C194.374222,97.1687014 190.966645,97.1966161 190.322048,99.0886116 C189.879868,100.382495 190.147223,101.5668 190.359618,102.186793 C189.93546,102.291023 189.597819,102.539843 189.446996,102.909767 C189.147187,103.648466 189.705123,104.58633 190.693703,105.005095 C191.682891,105.424832 192.726623,105.167234 193.02704,104.429507 C193.327456,103.69178 192.768912,102.752945 191.780332,102.334179 C191.722076,102.308418 191.663806,102.286721 191.605223,102.26657 C191.400467,101.170178 191.253078,99.21901 192.898433,99.582786 C195.163466,100.083674 197.953367,105.828275 200.398208,107.557363 C202.843967,109.285877 206.204288,108.914514 206.524181,106.609193 C206.729681,105.130767 206.301109,103.841794 205.967875,103.104064 C206.416077,103.023999 206.78209,102.785829 206.936308,102.407027 Z" id="bass" transform="translate(169.434304, 84.391651) rotate(-320.000000) translate(-169.434304, -84.391651) "></path>
            <path d="M237.0161,55.6491932 L235.407525,47.5740343 L248.187563,55.0153952 L240.135518,57.9422949 L192.854247,130.832504 L213.619488,151.327071 L247.704798,99.5062726 L236.313654,93.2650994 L218.650705,121.266871 L221.778458,138.923967 L200.171856,123.382533 L215.820611,119.655968 L239.211174,81.847454 C240.09014,80.426694 241.942575,79.9674783 243.38339,80.8131685 L255.035096,87.6521695 C255.063032,87.6685667 255.090707,87.6854042 255.118112,87.7026758 C256.555063,88.6083191 256.985774,90.5073674 256.08013,91.9443189 L210.80866,163.774927 C210.740674,163.882798 210.666045,163.986336 210.585206,164.084943 C209.508346,165.398484 207.570543,165.590352 206.257001,164.513492 L181.639999,144.33212 C180.421163,143.332901 180.154961,141.574003 181.023528,140.258864 L236.919128,55.6245851 L237.0161,55.6491932 Z M237.209477,91.8449151 L249.148701,97.3110691 L252.778309,91.7928799 L241.291457,85.3735921 L237.209477,91.8449151 Z M191.342775,133.162634 L185.238282,142.573501 L207.193818,161.096187 L211.656597,154.311307 L191.342775,133.162634 Z" id="bone" transform="translate(218.622844, 106.469029) scale(1, -1) rotate(141.000000) translate(-218.622844, -106.469029) "></path>
        </g>
    </g>
</svg>
