<svg xmlns="http://www.w3.org/2000/svg" id="logo" width="1000" height="266.573" class="header__logo" version="1.1" viewBox="0 0 1000 266.573">
  <path id="path3743" d="M95.91 0v41.373c0 4.701-3.761 7.992-7.993 7.992-4.701 0-7.992-3.76-7.992-7.992V0H0v266.573h904.09V225.2c0-4.702 3.761-7.993 7.993-7.993 4.701 0 7.992 3.761 7.992 7.993v41.373H1000V0Z" style="fill:#8bbe29;stroke-width:4.7014575"/>
  <path id="path3745" d="M523.742 141.514c7.523-2.35 11.284-7.052 14.105-11.754 2.82-4.701 4.231-9.873 4.231-15.985 0-9.873-3.291-17.865-9.873-23.507-6.582-5.642-15.985-8.463-27.268-8.463h-29.62c-4.701 0-7.992 3.291-7.992 7.993v93.559h21.627v-36.201h15.514l22.097 36.2h23.978zm-3.29-27.269c0 10.344-6.583 15.045-19.747 15.045h-12.224V98.73h12.224c13.164.47 19.746 5.172 19.746 15.515" style="fill:#fff;stroke-width:4.7014575"/>
  <path id="path3747" d="M568.406 81.805c-4.701 0-7.992 3.291-7.992 7.993v93.559h21.626V81.805Z" style="fill:#fff;stroke-width:4.7014575"/>
  <path id="path3749" d="M792.196 81.805h-11.754c-4.702 0-7.993 3.291-7.993 7.993v93.559h20.687v-66.76l51.246 66.76h18.806V81.805H842.5v65.82z" style="fill:#fff;stroke-width:4.7014575"/>
  <path id="path3751" d="M676.54 81.805h-76.164c-4.701 0-7.992 3.291-7.992 7.993v9.873h31.03v83.686h21.626V99.67h31.5z" style="fill:#fff;stroke-width:4.7014575"/>
  <path id="path3753" d="M207.334 183.357h23.037L190.41 82.276v-.47h-22.097l-39.962 100.61-.94.94h21.626l8.933-24.917h39.962zm-42.313-42.783 13.164-36.202 13.164 36.202h-26.328z" style="fill:#fff;stroke-width:4.7014575"/>
  <path id="path3755" d="M434.415 183.357h23.037L417.489 82.276v-.47h-22.567l-40.432 101.55h21.627l8.932-24.917h39.963zm-42.313-42.783 13.164-36.202 13.164 36.202h-26.328z" style="fill:#fff;stroke-width:4.7014575"/>
  <path id="path3757" d="M740.01 183.357h23.037L723.084 82.276v-.47h-22.567l-39.962 100.61-.47.94h21.626l8.933-24.917h39.962zm-42.314-42.783 13.164-36.202 13.164 36.202h-26.328z" style="fill:#fff;stroke-width:4.7014575"/>
  <path id="path3759" d="M283.498 153.268c1.88 2.82 4.701 5.641 8.463 5.641 3.76 0 6.582-2.35 8.462-5.641l24.918-37.612v67.7h20.686V81.807h-21.156L292.43 130.7l-32.44-48.896h-14.105c-4.701 0-7.992 3.291-7.992 7.993v93.559h20.216v-67.231Z" style="fill:#fff;stroke-width:4.7014575"/>
  <path id="path3761" d="M49.835 176.775c9.874 7.522 23.508 10.343 35.732 10.343 12.223 0 21.626-2.82 28.678-8.463 7.053-5.641 10.814-13.164 11.284-23.037.47-7.992-1.88-15.515-8.933-21.626-4.701-3.762-11.283-6.582-20.216-9.874-3.761-1.41-12.694-4.23-15.515-5.641-2.35-1.41-6.582-4.702-6.582-9.403 0-6.582 6.112-11.284 16.455-11.284 9.873 0 19.276 2.821 26.798 8.463l2.821-7.052c1.41-4.232 2.351-7.993 1.41-10.814-1.88-3.76-8.932-6.111-14.574-7.522-5.642-1.41-10.343-1.88-16.925-1.88-7.522 0-14.104 1.41-19.746 3.76-5.642 2.351-9.873 6.113-13.164 10.344-2.821 4.701-4.702 9.873-4.702 15.515 0 7.992 2.351 14.574 7.053 19.746 4.701 4.701 11.753 7.992 23.977 12.694 6.112 2.35 13.164 4.701 15.515 7.052 2.82 1.88 4.231 4.701 4.231 7.992 0 7.523-7.052 12.224-18.806 12.224-11.753 0-21.626-4.701-28.209-10.343z" style="fill:#fff;stroke-width:4.7014575"/>
  <path id="path3763" d="M874.471 176.775c9.873 7.522 23.507 10.343 35.731 10.343s21.627-2.82 28.68-8.463c7.051-5.641 10.812-13.164 11.283-23.037.47-7.992-1.881-15.515-8.933-21.626-4.702-3.762-11.284-6.582-20.216-9.874-3.762-1.41-12.694-4.23-15.515-5.641-2.351-1.41-6.582-4.702-6.582-9.403 0-6.582 6.112-11.284 16.455-11.284 9.873 0 19.276 2.821 26.798 8.463l2.821-7.052c1.41-4.232 2.35-7.993 1.41-10.814-1.88-3.76-8.932-6.111-14.574-7.522-5.642-1.41-10.343-1.88-16.925-1.88-7.523 0-14.105 1.41-19.746 3.76-5.642 2.351-9.874 6.113-13.165 10.344-2.82 4.701-4.701 9.873-4.701 15.515 0 7.992 2.35 14.574 7.052 19.746 4.702 4.701 11.754 7.992 23.978 12.694 6.111 2.35 13.164 4.701 15.514 7.052 2.821 1.88 4.232 4.701 4.232 7.992 0 7.523-7.523 12.224-18.806 12.224-11.754 0-21.627-4.701-28.209-10.343z" style="fill:#fff;stroke-width:4.7014575"/>
</svg>
