<svg width="289" height="142" viewBox="0 0 289 142" fill="none" xmlns="http://www.w3.org/2000/svg">
<g clip-path="url(#clip0_211_1004)">
<path d="M135.98 80.814L136.094 80.8596C136.23 80.9052 136.434 80.9735 136.66 80.9963H136.842C137 81.0419 137.114 81.0419 137.272 81.0419H137.544C137.771 80.9963 138.02 80.9735 138.27 80.9052L142.259 79.8337V22.0443C142.259 21.6796 142.304 21.3376 142.417 20.9501C142.667 20.061 143.188 19.2403 143.913 18.6932C144.933 17.9181 146.293 17.6218 147.54 17.9637L151.053 18.9212C155.519 20.1294 158.873 24.438 158.873 28.9973V75.3656C178.91 69.5524 195.162 48.534 195.162 28.359C195.162 11.6719 183.965 0 167.962 0C164.857 0 161.661 0.433135 158.42 1.3222L138.632 6.65661C136.32 7.27212 134.371 9.59737 134.371 11.7175V78.0556C134.371 78.2835 134.394 78.5343 134.462 78.8079L134.507 79.013C134.552 79.1726 134.598 79.3094 134.666 79.4462C134.688 79.5146 134.711 79.5601 134.756 79.6057C134.847 79.7653 134.915 79.8793 134.983 79.9933C135.028 80.0617 135.074 80.1073 135.119 80.1757C135.21 80.2668 135.368 80.4264 135.414 80.4492C135.459 80.472 135.504 80.5176 135.55 80.5632C135.572 80.586 135.844 80.7684 136.026 80.8368" fill="#C6007E"/>
<path d="M150.373 23.5718L146.701 22.5915V80.5633C146.701 82.4554 145.432 84.1424 143.596 84.6211L140.083 85.5558C139.312 85.7609 138.542 85.8749 137.771 85.8749C133.396 85.8749 130.087 82.501 130.087 78.0329V18.1006C127.004 17.3255 123.944 16.9152 120.998 16.9152C104.973 16.9152 93.7983 28.5643 93.7983 45.2514C93.7983 65.7911 110.413 86.992 130.858 92.4859L150.645 97.8203C151.008 97.9115 151.371 97.9799 151.711 97.9799C152.549 97.9799 153.252 97.7063 153.773 97.1592C154.317 96.6121 154.589 95.837 154.589 94.948V28.9974C154.589 26.6265 152.685 24.2101 150.328 23.5718" fill="#00B0B9"/>
<path d="M8.64126 115.875V130.511C8.64126 132.106 8.64126 133.657 8.57326 134.933C9.29858 135.002 10.0466 135.002 11.5652 135.002C18.3424 135.002 22.0823 132.608 22.0823 122.509V122.144C22.0823 114.507 19.4531 111.134 12.3585 110.883C11.0665 110.814 9.66124 110.883 8.50526 110.951C8.57326 112.365 8.61859 114.097 8.61859 115.875M2.02271 104.568C4.40267 104.454 7.77994 104.386 11.3839 104.386C17.6851 104.386 22.2637 105.617 25.2103 107.76C29.4262 110.906 30.8315 115.761 30.8315 122.03C30.8315 135.503 24.5983 141.407 11.4519 141.407C8.89059 141.407 6.1253 141.339 3.31469 141.293C0.934733 141.225 0.0734151 139.88 0.0734151 137.486V112.752C0.0734151 110.472 0.0734151 108.261 0.00541635 106.665C-0.0625824 105.252 0.504074 104.637 2.02271 104.568" fill="#C6007E"/>
<path d="M45.2473 124.356C47.2646 124.356 49.1006 124.356 51.1179 124.287C51.1179 119.91 49.4633 117.95 46.222 117.95C43.2754 117.95 41.2127 120.343 41.2127 124.47C42.5501 124.356 43.9554 124.356 45.2473 124.356ZM55.0392 135.07C55.5378 134.888 55.9685 134.568 56.6258 134.568C57.3511 134.568 57.8498 135.298 57.8498 136.233C57.8498 139.606 53.8152 141.955 47.582 141.955C38.7195 141.955 33.0756 137.213 33.0756 127.501C33.0756 117.79 38.5155 112.934 46.766 112.934C54.1098 112.934 58.5071 117.676 58.5071 126.339C58.5071 128.071 58.1898 129.052 56.8525 129.166C54.8352 129.348 52.0925 129.28 49.0326 129.28C47.1966 129.28 44.25 129.211 41.5754 129.166C41.5074 133.543 44.4993 135.982 49.4633 135.982C51.5486 135.982 53.8152 135.549 55.0392 135.07Z" fill="#C6007E"/>
<path d="M61.5897 122.577C61.5897 119.135 61.4083 116.422 61.4083 114.827C61.4083 113.96 61.771 113.596 62.7003 113.527C63.4936 113.459 64.2869 113.459 64.8309 113.459C65.4429 113.459 66.3042 113.459 66.9842 113.527C67.9589 113.596 68.5029 113.96 68.8202 115.123L69.0015 115.807H69.1148C71.9255 113.96 75.0534 112.912 78.2267 112.912C81.4 112.912 83.9159 114.074 85.7519 116.491C88.3812 114.325 91.8718 112.912 95.4757 112.912C102.208 112.912 103.908 117.038 103.908 123.922V136.894C103.908 138.125 103.976 139.356 103.976 140.04C103.976 140.906 103.613 141.088 102.638 141.271C101.913 141.385 101.052 141.385 100.122 141.385C99.4423 141.385 98.5356 141.385 97.6743 141.271C96.1557 141.02 95.589 140.404 95.589 138.307V124.538C95.589 120.549 94.1837 119.249 91.9171 119.249C89.8318 119.249 88.0638 119.933 86.7719 120.776C86.8399 121.574 86.8852 123.239 86.8852 124.834V136.894C86.8852 138.125 86.9532 139.356 86.9532 140.04C86.9532 140.906 86.5905 141.088 85.6159 141.271C84.8906 141.385 84.0292 141.385 83.0999 141.385C82.4199 141.385 81.5133 141.385 80.652 141.271C79.1333 141.02 78.5667 140.404 78.5667 138.307V124.538C78.5667 120.549 77.1614 118.93 74.6454 118.93C72.8094 118.93 71.0415 119.545 69.7495 120.594C69.8175 121.392 69.8628 123.239 69.8628 124.834V136.894C69.8628 138.125 69.9308 139.356 69.9308 140.04C69.9308 140.906 69.5682 141.088 68.5935 141.271C67.8682 141.385 67.0069 141.385 66.0776 141.385C65.3976 141.385 64.4909 141.385 63.6296 141.271C62.111 141.02 61.5443 140.404 61.5443 138.307V122.555L61.5897 122.577Z" fill="#C6007E"/>
<path d="M118.935 124.356C120.953 124.356 122.788 124.356 124.806 124.287C124.806 119.91 123.151 117.95 119.91 117.95C116.963 117.95 114.901 120.343 114.901 124.47C116.238 124.356 117.643 124.356 118.935 124.356M128.727 135.07C129.226 134.888 129.656 134.568 130.314 134.568C131.039 134.568 131.538 135.298 131.538 136.233C131.538 139.606 127.503 141.955 121.27 141.955C112.407 141.955 106.763 137.213 106.763 127.501C106.763 117.79 112.203 112.934 120.454 112.934C127.798 112.934 132.195 117.676 132.195 126.339C132.195 128.071 131.878 129.052 130.54 129.166C128.523 129.348 125.758 129.28 122.72 129.28C120.885 129.28 117.938 129.211 115.263 129.166C115.195 133.543 118.21 135.982 123.151 135.982C125.236 135.982 127.503 135.549 128.727 135.07Z" fill="#C6007E"/>
<path d="M152.527 124.105C152.527 120.412 151.303 119.249 148.673 119.249C146.905 119.249 144.707 119.933 143.415 120.731C143.483 121.529 143.596 123.261 143.596 124.857V136.916C143.596 138.148 143.664 139.379 143.664 140.062C143.664 140.929 143.301 141.111 142.327 141.293C141.601 141.407 140.74 141.407 139.811 141.407C139.131 141.407 138.224 141.407 137.363 141.293C135.844 141.043 135.278 140.427 135.278 138.353V122.6C135.278 119.158 135.096 116.445 135.096 114.849C135.096 113.983 135.459 113.618 136.388 113.55C137.181 113.482 137.975 113.482 138.541 113.482C139.153 113.482 140.015 113.482 140.672 113.55C141.647 113.618 142.191 113.983 142.508 115.146L142.689 115.83H142.803C145.5 114.051 148.923 112.934 152.209 112.934C158.76 112.934 160.822 116.514 160.822 123.398V136.939C160.822 138.17 160.89 139.401 160.89 140.085C160.89 140.951 160.528 141.134 159.553 141.316C158.828 141.43 157.966 141.43 157.037 141.43C156.357 141.43 155.45 141.43 154.589 141.316C153.071 141.065 152.504 140.45 152.504 138.375V124.173L152.527 124.105Z" fill="#C6007E"/>
<path d="M166.67 132.836C166.67 129.576 166.784 123.854 166.852 119.249H162.998C162.273 119.249 161.956 118.998 161.956 118.269C161.956 117.767 161.956 117.402 162.024 116.855C162.092 116.057 162.341 115.693 163.248 114.895C165.514 112.934 168.257 110.404 170.456 108.261C171.317 107.395 171.861 107.098 172.904 107.098H173.629C174.354 107.098 174.74 107.463 174.74 108.215V113.823C177.913 113.823 181.766 113.755 182.877 113.755C183.851 113.755 184.214 114.074 184.214 115.054C184.214 115.488 184.214 116.035 184.146 116.901C184.033 118.747 183.035 119.363 181.154 119.363C179.499 119.363 177.052 119.295 174.74 119.295V130.989C174.74 134.568 175.964 136.164 178.955 136.164C180.179 136.164 181.154 136.05 182.083 135.799C182.401 135.731 182.763 135.617 183.171 135.617C183.965 135.617 184.395 136.301 184.395 137.144C184.395 140.29 181.403 142 176.508 142C169.73 142 166.67 139.173 166.67 132.904" fill="#C6007E"/>
<path d="M194.618 136.916C194.618 138.147 194.686 139.378 194.686 140.062C194.686 140.928 194.323 141.111 193.348 141.293C192.623 141.407 191.762 141.407 190.833 141.407C190.153 141.407 189.246 141.407 188.385 141.293C186.866 141.042 186.299 140.427 186.299 138.352V117.995C186.299 116.764 186.231 115.533 186.231 114.849C186.231 113.983 186.594 113.801 187.569 113.618C188.294 113.504 189.155 113.504 190.085 113.504C190.765 113.504 191.671 113.504 192.532 113.618C194.051 113.869 194.618 114.484 194.618 116.582V136.939V136.916ZM190.334 109.857C187.093 109.857 185.687 108.375 185.687 105.548C185.687 102.721 187.229 101.308 190.515 101.308H190.765C194.006 101.308 195.343 102.79 195.343 105.548C195.343 108.307 193.824 109.857 190.583 109.857H190.334Z" fill="#C6007E"/>
<path d="M257.313 128.231C257.313 137.509 253.391 141.954 243.917 141.954C233.468 141.954 230.045 137.532 230.045 128.231V113.459C230.045 110.746 229.977 107.873 229.932 105.525C229.932 105.024 230.181 104.614 230.793 104.545C231.405 104.477 232.38 104.477 233.241 104.477C235.009 104.477 235.553 104.841 235.553 106.392V129.211C235.553 134.933 237.82 137.828 243.94 137.828C249.447 137.828 251.895 134.933 251.895 129.211V113.459C251.895 110.883 251.827 107.805 251.782 105.525C251.782 104.91 251.963 104.614 252.689 104.545C253.369 104.477 253.845 104.477 254.842 104.477C256.746 104.477 257.358 104.841 257.358 106.392V128.231H257.313Z" fill="#00B0B9"/>
<path d="M262.435 113.481C262.435 110.769 262.322 107.395 262.322 105.48C262.322 104.933 262.503 104.614 263.047 104.568C263.659 104.5 264.203 104.5 264.996 104.5H265.427C267.263 104.5 267.943 104.864 267.943 106.414V123.444C273.383 117.972 278.778 111.019 282.268 105.48C282.699 104.796 283.129 104.614 283.56 104.568C284.285 104.5 285.147 104.5 285.94 104.5C287.459 104.5 287.957 104.819 287.957 105.548C287.957 106.05 287.776 106.597 287.232 107.509C284.104 112.296 279.344 118.337 275.786 122.395C279.639 128.413 284.036 134.523 287.844 139.059C288.819 140.222 289 140.473 289 140.723C289 141.02 288.751 141.225 288.456 141.27C287.957 141.384 287.481 141.453 286.371 141.453C285.509 141.453 285.215 141.453 284.784 141.384C283.447 141.27 282.404 140.701 281.293 139.242C278.483 135.435 275.06 130.191 272.295 125.883C270.708 127.479 269.235 128.96 267.943 130.077V132.403C267.943 135.115 268.056 138.489 268.056 140.404C268.056 140.951 267.875 141.27 267.331 141.316C266.719 141.384 266.175 141.384 265.382 141.384H264.951C263.115 141.384 262.435 141.02 262.435 139.47V113.459V113.481Z" fill="#00B0B9"/>
<path d="M215.221 120.389C214.383 119.842 212.841 119.477 211.209 119.477C207.855 119.477 205.588 121.46 205.588 127.342C205.588 133.657 207.674 135.936 211.073 135.936C212.751 135.936 214.292 135.207 215.199 134.135V120.366L215.221 120.389ZM215.879 138.581C214.315 140.678 211.935 141.955 208.716 141.955C201.848 141.955 197.315 136.78 197.315 127.843C197.315 118.907 202.211 113.596 209.396 113.596C211.663 113.596 213.929 114.257 215.244 115.283C215.244 115.283 215.199 115.533 215.199 114.872C215.199 114.029 215.607 113.732 216.241 113.641C217.851 113.368 220.185 113.436 221.727 113.55C222.769 113.618 223.381 114.325 223.381 115.169V132.562C223.381 135.936 223.563 138.581 223.563 140.131C223.563 140.974 223.2 141.339 222.293 141.385C221.523 141.453 220.752 141.453 220.208 141.453C219.619 141.453 218.825 141.453 218.123 141.385C217.216 141.316 216.627 140.724 216.332 139.88L215.924 138.626L215.879 138.581Z" fill="#C6007E"/>
</g>
<defs>
<clipPath id="clip0_211_1004">
<rect width="289" height="142" fill="white"/>
</clipPath>
</defs>
</svg>
