<?xml version="1.0" encoding="UTF-8"?>
<svg width="965px" height="443px" viewBox="0 0 965 443" version="1.1" xmlns="http://www.w3.org/2000/svg" xmlns:xlink="http://www.w3.org/1999/xlink">
    <!-- Generator: Sketch 52.6 (67491) - http://www.bohemiancoding.com/sketch -->
    <title>rcbb-logo-black</title>
    <desc>Created with Sketch.</desc>
    <g id="rcbb-logo-black" stroke="none" stroke-width="1" fill="none" fill-rule="evenodd">
        <g id="logo/black" fill="#000000">
            <path d="M686,393 L964,393 L950.612949,398 L685,398 L686,393 Z M617,398 L13.387051,398 L0,393 L615,393 L620,393 M682,408 L922,408 L908.622298,413 L680,413 M610,413 L54.3777018,413 L41,408 L611,408 L610,413 Z M674,423 L879,423 L865.669883,428 L670,428 M612,428 L98.3729708,428 L85,423 L611,423 L612,428 Z M663,393 L668,393 L667,398 L664,398 L663,393 Z M20,323 L24.6032278,338.395948 L40,343.00067 L24.6032278,347.604052 L20,363 L15.3967722,347.604052 L0,343.00067 L15.3967722,338.395948 L20,323 Z M944,323 L948.603228,338.395948 L964,343.00067 L948.603228,347.604052 L944,363 L939.396772,347.604052 L924,343.00067 L939.396772,338.395948 L944,323 Z" id="Lines"></path>
            <path d="M47.3965714,241.669491 C53.3211725,241.669491 59.0937741,241.061849 64.7145495,239.846546 L86.362022,276.305447 L93.4259341,276.305447 L70.6391209,238.023601 C78.8424146,235.137257 85.3745691,230.693873 90.2357802,224.693315 C95.0969913,218.692758 97.5275604,210.907341 97.5275604,201.336832 C97.5275604,194.652666 96.2363206,188.804109 93.6538022,183.790986 C91.0712838,178.777862 87.5393631,174.562343 83.0579341,171.144304 C78.5765051,167.726265 73.2976128,165.143785 67.2210989,163.396788 C61.144585,161.64979 54.5364753,160.776304 47.3965714,160.776304 L22.7868132,160.776304 L22.7868132,276.305447 L28.7113846,276.305447 L28.7113846,241.669491 L47.3965714,241.669491 Z M28.7113846,236.200656 L28.7113846,166.245139 L47.3965714,166.245139 C61.2206405,166.245139 72.0442686,169.283351 79.8677802,175.359865 C87.6912919,181.436379 91.602989,190.095281 91.602989,201.336832 C91.602989,212.578382 87.6912919,221.199307 79.8677802,227.199865 C72.0442686,233.200422 61.2206405,236.200656 47.3965714,236.200656 L28.7113846,236.200656 Z M0,142.546854 L52.4096703,142.546854 C62.1320926,142.546854 71.1327938,143.838093 79.412044,146.420612 C87.6912941,149.00313 94.8690685,152.800895 100.945582,157.814018 C107.022096,162.827142 111.769302,169.017498 115.187341,176.385271 C118.60538,183.753044 120.314374,192.222059 120.314374,201.792568 C120.314374,209.38821 119.251,215.844409 117.12422,221.161359 C114.99744,226.478309 112.642826,230.883715 110.060308,234.377711 C107.022051,238.327445 103.604063,241.669477 99.8062418,244.403909 L128.289758,294.534898 L71.3227253,294.534898 L48.5359121,256.025183 L48.5359121,294.534898 L0,294.534898 L0,142.546854 Z M48.5359121,217.287601 L51.0424615,217.287601 C56.8151497,217.287601 61.7142656,215.996361 65.739956,213.413843 C69.7656465,210.831324 71.7784615,206.501873 71.7784615,200.425359 C71.7784615,194.348845 69.7656465,190.019394 65.739956,187.436876 C61.7142656,184.854357 56.8151497,183.563117 51.0424615,183.563117 L48.5359121,183.563117 L48.5359121,217.287601 Z M132.847121,142.546854 L222.399297,142.546854 L222.399297,182.423777 L181.383033,182.423777 L181.383033,199.286018 L221.715692,199.286018 L221.715692,237.112128 L181.383033,237.112128 L181.383033,254.657975 L223.994374,254.657975 L223.994374,294.534898 L132.847121,294.534898 L132.847121,142.546854 Z M207.132132,276.305447 L207.132132,270.836612 L161.558505,270.836612 L161.558505,220.933491 L204.853451,220.933491 L204.853451,215.464656 L161.558505,215.464656 L161.558505,166.245139 L207.132132,166.245139 L207.132132,160.776304 L155.633934,160.776304 L155.633934,276.305447 L207.132132,276.305447 Z M237.666462,294.534898 L237.666462,142.546854 L279.822066,142.546854 C294.101874,142.546854 306.824384,144.141915 317.989978,147.332084 C329.155572,150.522254 338.574028,155.307437 346.245626,161.687777 C353.917225,168.068116 359.765782,176.005444 363.791473,185.499996 C367.817163,194.994549 369.829978,205.970088 369.829978,218.426942 C369.829978,230.883795 367.817163,241.859334 363.791473,251.353887 C359.765782,260.84844 353.917225,268.785767 346.245626,275.166106 C338.574028,281.546446 329.155572,286.369607 317.989978,289.635733 C306.824384,292.901859 294.101874,294.534898 279.822066,294.534898 L237.666462,294.534898 Z M266.377846,270.836612 L266.377846,166.245139 L279.822066,166.245139 C299.114998,166.245139 314.116166,170.612568 324.826022,179.347557 C335.535878,188.082546 340.890725,201.108877 340.890725,218.426942 C340.890725,235.745006 335.535878,248.809315 324.826022,257.62026 C314.116166,266.431205 299.114998,270.836612 279.822066,270.836612 L266.377846,270.836612 Z M260.453275,276.305447 L279.822066,276.305447 C302.001342,276.305447 318.749482,271.254421 330.066989,261.152216 C341.384496,251.050012 347.043165,236.808396 347.043165,218.426942 C347.043165,200.045487 341.384496,185.841849 330.066989,175.815601 C318.749482,165.789353 302.001342,160.776304 279.822066,160.776304 L260.453275,160.776304 L260.453275,276.305447 Z M286.202374,251.239953 C297.595837,251.239953 306.40665,248.54354 312.635077,243.150634 C318.863504,237.757728 321.97767,229.516579 321.97767,218.426942 C321.97767,207.337304 318.863504,199.134133 312.635077,193.817183 C306.40665,188.500234 297.595837,185.841799 286.202374,185.841799 L286.202374,251.239953 Z M397.402022,274.71037 C399.528802,275.166109 401.80746,275.545885 404.238066,275.849711 C406.364846,276.153536 408.605527,276.41938 410.960176,276.647249 C413.314825,276.875119 415.707416,276.989051 418.138022,276.989051 C422.391582,276.989051 426.531145,276.495342 430.556835,275.507909 C434.582526,274.520475 438.190402,272.887436 441.380571,270.608744 C444.570741,268.330051 447.115243,265.405773 449.014154,261.835821 C450.913064,258.265869 451.862505,253.89844 451.862505,248.733403 C451.862505,244.327931 450.761154,240.15039 448.558418,236.200656 C446.355681,232.250922 443.545336,228.453158 440.127297,224.807249 C436.709258,221.161341 433.063404,217.667398 429.189626,214.325315 C425.315849,210.983233 421.669995,207.603222 418.251956,204.185183 C414.833917,200.767144 412.023571,197.349156 409.820835,193.931117 C407.618099,190.513078 406.516747,186.981158 406.516747,183.335249 C406.516747,177.866387 408.263719,173.650868 411.757714,170.688568 C415.25171,167.726267 420.872401,166.245139 428.619956,166.245139 C429.835259,166.245139 431.088521,166.283117 432.37978,166.359073 C433.671039,166.43503 434.924302,166.548963 436.139604,166.700876 C437.354907,166.852788 438.570192,166.928744 439.785495,166.928744 L439.785495,161.004172 C438.722105,161.004172 437.582775,160.928217 436.367473,160.776304 C435.304083,160.624391 434.126776,160.510458 432.835516,160.434502 C431.544257,160.358546 430.21504,160.320568 428.847824,160.320568 C420.64453,160.320568 413.88451,162.181472 408.56756,165.903337 C403.250611,169.625202 400.592176,175.435781 400.592176,183.335249 C400.592176,187.588809 401.693527,191.576461 403.896264,195.298326 C406.099,199.020191 408.909346,202.666045 412.327385,206.235996 C415.745424,209.805948 419.391277,213.261914 423.265055,216.603996 C427.138833,219.946079 430.784686,223.326089 434.202725,226.744128 C437.620764,230.162167 440.43111,233.694088 442.633846,237.339996 C444.836582,240.985905 445.937934,244.783669 445.937934,248.733403 C445.937934,256.02522 443.469387,261.569956 438.53222,265.367777 C433.595052,269.165598 426.797054,271.06448 418.138022,271.06448 C412.972985,271.06448 408.263758,270.684704 404.010198,269.925139 C401.731505,269.621314 399.528802,269.241537 397.402022,268.785799 L397.402022,274.71037 Z M378.261099,247.366194 C381.603182,248.429584 385.097125,249.265092 388.743033,249.872744 C391.78129,250.632308 395.237255,251.23995 399.111033,251.695689 C402.984811,252.151427 406.896508,252.379293 410.846242,252.379293 C417.834233,252.379293 421.328176,249.796814 421.328176,244.631777 C421.328176,242.65691 420.264802,240.644095 418.138022,238.593271 C416.011242,236.542448 413.31483,234.263789 410.048703,231.757227 C406.782577,229.250665 403.288634,226.478297 399.566769,223.44004 C395.844904,220.401784 392.350961,216.90784 389.084835,212.958106 C385.818709,209.008372 383.122296,204.564988 380.995516,199.627821 C378.868737,194.690653 377.805363,189.031984 377.805363,182.651645 C377.805363,175.511741 379.096602,169.207452 381.679121,163.73859 C384.261639,158.269727 387.831538,153.71241 392.388923,150.066502 C396.946309,146.420594 402.301156,143.648226 408.453626,141.749315 C414.606097,139.850405 421.176229,138.900964 428.16422,138.900964 C431.810128,138.900964 435.455982,139.090852 439.10189,139.470634 C442.747798,139.850416 446.013876,140.192215 448.90022,140.49604 C452.242302,140.951779 455.50838,141.407511 458.698549,141.863249 L458.698549,184.47459 C457.483247,184.322677 456.116052,184.170766 454.596923,184.018854 C453.38162,183.866941 452.014425,183.71503 450.495297,183.563117 C448.976168,183.411205 447.381107,183.335249 445.710066,183.335249 C444.798589,183.335249 443.65926,183.373227 442.292044,183.449183 C440.924828,183.52514 439.633588,183.715028 438.418286,184.018854 C437.202983,184.322679 436.139609,184.854366 435.228132,185.613931 C434.316655,186.373495 433.860923,187.436869 433.860923,188.804084 C433.860923,190.019387 434.886319,191.538493 436.937143,193.361447 C438.987966,195.184401 441.494491,197.311149 444.456791,199.741755 C447.419092,202.17236 450.685169,204.982706 454.255121,208.172876 C457.825073,211.363045 461.09115,215.008899 464.053451,219.110546 C467.015751,223.212193 469.522275,227.845465 471.573099,233.010502 C473.623922,238.175539 474.649319,243.94814 474.649319,250.32848 C474.649319,257.012645 473.585945,263.278956 471.459165,269.127601 C469.332385,274.976246 466.02833,280.06525 461.546901,284.394766 C457.065472,288.724282 451.330848,292.14227 444.342857,294.648832 C437.354866,297.155394 429.07574,298.408656 419.505231,298.408656 C413.732543,298.408656 408.377695,298.142812 403.440527,297.611117 C398.50336,297.079422 394.135931,296.433802 390.33811,295.674238 C385.932637,294.914674 381.907007,294.003211 378.261099,292.939821 L378.261099,247.366194 Z M499.95578,182.423777 L471.928,182.423777 L471.928,142.546854 L578.114549,142.546854 L578.114549,182.423777 L550.086769,182.423777 L550.086769,294.534898 L499.95578,294.534898 L499.95578,182.423777 Z M527.98356,276.305447 L527.98356,166.245139 L560.568703,166.245139 L560.568703,160.776304 L489.473846,160.776304 L489.473846,166.245139 L522.058989,166.245139 L522.058989,276.305447 L527.98356,276.305447 Z M727.810813,142.546854 L767.687736,142.546854 L809.615473,201.108964 L809.615473,142.546854 L857.239912,142.546854 L857.239912,294.534898 L817.135121,294.534898 L775.435253,236.200656 L775.435253,294.534898 L727.810813,294.534898 L727.810813,142.546854 Z M754.927121,276.305447 L754.927121,171.03037 L830.123604,276.305447 L836.048176,276.305447 L836.048176,160.776304 L830.123604,160.776304 L830.123604,266.051381 L754.927121,160.776304 L749.002549,160.776304 L749.002549,276.305447 L754.927121,276.305447 Z M873.190681,142.546854 L962.742857,142.546854 L962.742857,182.423777 L921.726593,182.423777 L921.726593,199.286018 L962.059253,199.286018 L962.059253,237.112128 L921.726593,237.112128 L921.726593,254.657975 L964.337934,254.657975 L964.337934,294.534898 L873.190681,294.534898 L873.190681,142.546854 Z M947.475692,276.305447 L895.977495,276.305447 L895.977495,160.776304 L947.475692,160.776304 L947.475692,166.245139 L901.902066,166.245139 L901.902066,215.464656 L945.197011,215.464656 L945.197011,220.933491 L901.902066,220.933491 L901.902066,270.836612 L947.475692,270.836612 L947.475692,276.305447 Z M607.160399,141.852414 C482.354735,-57.3340689 742.213963,-38.6561989 624.403062,147.245294 C624.403062,147.245294 632.295466,164.293765 632.295466,164.293765 C727.085287,83.3313592 744.914417,255.125974 673.757456,282.685628 C673.757456,282.685628 701.495821,383.553608 667.400439,424.379137 C633.305057,465.204665 603.477628,429.901267 619.149615,401.449079 C634.821372,373.003499 660.333211,382.173945 660.918753,399.904552 C661.504294,417.635159 646.616429,425.527158 647.612951,425.422803 C674.561954,414.250216 685.073619,365.860169 661.072565,287.367502 C607.176113,304.409435 528.476868,244.446356 607.160399,141.852414 Z M620.578575,175.346191 L613.225788,158.451809 C543.518674,240.318264 614.377457,294.029499 655.160381,273.488855 C640.663016,223.41883 638.384658,215.575838 629.451085,195.004201 C581.930226,241.176219 634.546322,224.214477 631.504878,240.938536 C608.495431,246.405898 567.550101,238.364041 620.578575,175.346191 Z M666.451304,268.283648 C719.268115,243.662039 699.260645,125.74103 639.492569,187.850769 C650.749743,212.253692 666.451304,268.283648 666.451304,268.283648 Z M614.439439,130.363797 C694.918297,9.73229399 533.925004,-10.2683897 614.439439,130.363797 Z" id="REDSTONE"></path>
            <path d="M96.1300006,332.6 C92.8900006,329.36 88.3300005,327.38 83.7100004,327.38 C74.2300002,327.38 66.6100001,334.76 66.6100001,344.06 C66.6100001,353.300001 74.2300002,360.800001 83.7100004,360.800001 C88.3300005,360.800001 92.8300006,358.880001 96.1300006,355.760001 L99.0700007,358.940001 C94.9300006,362.840001 89.2900005,365.300001 83.4700004,365.300001 C71.3500002,365.300001 61.75,355.940001 61.75,344.06 C61.75,332.3 71.4700002,323 83.6500004,323 C89.4100005,323 94.9900006,325.34 99.0100007,329.12 L96.1300006,332.6 Z M132.750001,323 C144.990002,323 154.710002,332.3 154.710002,344.12 C154.710002,355.940001 144.990002,365.300001 132.750001,365.300001 C120.450001,365.300001 110.730001,355.940001 110.730001,344.12 C110.730001,332.3 120.450001,323 132.750001,323 Z M132.750001,327.44 C123.390001,327.44 115.590001,334.82 115.590001,344.12 C115.590001,353.420001 123.390001,360.920001 132.750001,360.920001 C142.110001,360.920001 149.790002,353.420001 149.790002,344.12 C149.790002,334.82 142.110001,327.44 132.750001,327.44 Z M171.470002,323.12 L177.410002,323.12 L192.770002,353.600001 L208.070003,323.12 L213.950003,323.12 L213.950003,365.120001 L209.510003,365.120001 L209.450003,330.2 L194.150002,360.680001 L191.270002,360.680001 L176.030002,330.2 L176.030002,365.120001 L171.470002,365.120001 L171.470002,323.12 Z M234.730003,323.12 L240.670003,323.12 L256.030004,353.600001 L271.330004,323.12 L277.210004,323.12 L277.210004,365.120001 L272.770004,365.120001 L272.710004,330.2 L257.410004,360.680001 L254.530004,360.680001 L239.290003,330.2 L239.290003,365.120001 L234.730003,365.120001 L234.730003,323.12 Z M301.830004,347.84 C301.830004,356.120001 306.750004,360.920001 314.730005,360.920001 C322.710005,360.920001 327.510005,356.120001 327.510005,347.84 L327.510005,323.12 L332.310005,323.12 L332.310005,347.84 C332.310005,358.820001 325.710005,365.300001 314.730005,365.300001 C303.690004,365.300001 297.030004,358.820001 297.030004,347.84 L297.030004,323.12 L301.830004,323.12 L301.830004,347.84 Z M352.070005,323.12 L357.050005,323.12 L382.250006,357.260001 L382.250006,323.12 L386.990006,323.12 L386.990006,365.120001 L382.070006,365.120001 L356.870005,331.04 L356.870005,365.120001 L352.070005,365.120001 L352.070005,323.12 Z M407.770006,323.12 L412.570006,323.12 L412.570006,365.120001 L407.770006,365.120001 L407.770006,323.12 Z M427.590007,323.12 L459.810007,323.12 L459.810007,327.56 L446.070007,327.56 L446.070007,365.120001 L441.270007,365.120001 L441.270007,327.56 L427.590007,327.56 L427.590007,323.12 Z M505.610008,323.12 L489.650008,350.540001 L489.650008,365.120001 L484.910008,365.120001 L484.910008,350.660001 L468.650007,323.12 L473.630008,323.12 L487.250008,345.14 L500.690008,323.12 L505.610008,323.12 Z M563.970009,323.12 C572.430009,323.12 577.590009,327.02 577.590009,333.62 C577.590009,338.54 574.650009,342.08 569.790009,343.1 C575.850009,344 579.390009,347.96 579.390009,353.720001 C579.390009,360.860001 573.750009,365.120001 564.210009,365.120001 L546.270009,365.120001 L546.270009,323.12 L563.970009,323.12 Z M563.730009,341.3 C569.370009,341.3 572.670009,338.78 572.670009,334.34 C572.670009,330.02 569.370009,327.56 563.730009,327.56 L551.070009,327.56 L551.070009,341.3 L563.730009,341.3 Z M563.730009,360.680001 C570.570009,360.740001 574.530009,357.980001 574.530009,353.120001 C574.530009,348.44 570.570009,345.68 563.730009,345.74 L551.070009,345.74 L551.070009,360.680001 L563.730009,360.680001 Z M597.23001,323.12 L602.03001,323.12 L602.03001,365.120001 L597.23001,365.120001 L597.23001,323.12 Z M652.030011,357.380001 L652.030011,344.6 L656.290011,344.6 L656.290011,359.840001 C652.150011,363.140001 646.330011,365.300001 640.690011,365.300001 C628.51001,365.300001 618.79001,355.940001 618.79001,344.12 C618.79001,332.3 628.57001,323 640.930011,323 C646.750011,323 652.390011,325.22 656.410011,328.76 L653.650011,332.24 C650.230011,329.18 645.610011,327.38 640.930011,327.38 C631.33001,327.38 623.65001,334.82 623.65001,344.12 C623.65001,353.480001 631.39001,360.920001 640.990011,360.920001 C644.770011,360.920001 648.790011,359.600001 652.030011,357.380001 Z M719.630012,323.12 C728.090012,323.12 733.250012,327.02 733.250012,333.62 C733.250012,338.54 730.310012,342.08 725.450012,343.1 C731.510012,344 735.050012,347.96 735.050012,353.720001 C735.050012,360.860001 729.410012,365.120001 719.870012,365.120001 L701.930012,365.120001 L701.930012,323.12 L719.630012,323.12 Z M719.390012,341.3 C725.030012,341.3 728.330012,338.78 728.330012,334.34 C728.330012,330.02 725.030012,327.56 719.390012,327.56 L706.730012,327.56 L706.730012,341.3 L719.390012,341.3 Z M719.390012,360.680001 C726.230012,360.740001 730.190012,357.980001 730.190012,353.120001 C730.190012,348.44 726.230012,345.68 719.390012,345.74 L706.730012,345.74 L706.730012,360.680001 L719.390012,360.680001 Z M784.150013,365.120001 L779.410013,354.380001 L756.550013,354.380001 L751.870013,365.120001 L746.770012,365.120001 L765.610013,323.12 L770.590013,323.12 L789.370013,365.120001 L784.150013,365.120001 Z M758.530013,349.94 L777.490013,349.94 L767.950013,328.34 L758.530013,349.94 Z M803.970014,323.12 L808.950014,323.12 L834.150014,357.260001 L834.150014,323.12 L838.890014,323.12 L838.890014,365.120001 L833.970014,365.120001 L808.770014,331.04 L808.770014,365.120001 L803.970014,365.120001 L803.970014,323.12 Z M876.650015,323.12 C888.890015,323.12 898.250015,332.18 898.250015,344.12 C898.250015,356.060001 888.830015,365.120001 876.470015,365.120001 L859.670015,365.120001 L859.670015,323.12 L876.650015,323.12 Z M876.710015,360.680001 L864.470015,360.680001 L864.470015,327.56 L876.530015,327.56 C885.950015,327.56 893.390015,334.7 893.390015,344.18 C893.390015,353.600001 886.070015,360.680001 876.710015,360.680001 Z M125,83 L150.776,83 L150.776,86.552 L139.784,86.552 L139.784,116.6 L135.944,116.6 L135.944,86.552 L125,86.552 L125,83 Z M160.244,83 L164.084,83 L164.084,98.216 L184.34,98.216 L184.34,83 L188.18,83 L188.18,116.6 L184.34,116.6 L184.34,101.72 L164.084,101.72 L164.084,116.6 L160.244,116.6 L160.244,83 Z M202.256,83 L225.056,83 L225.056,86.552 L206.096,86.552 L206.096,97.832 L223.04,97.832 L223.04,101.336 L206.096,101.336 L206.096,113.048 L225.68,113.048 L225.68,116.6 L202.256,116.6 L202.256,83 Z" id="THE-COMMUNITY"></path>
        </g>
    </g>
</svg>