<svg xmlns="http://www.w3.org/2000/svg" width="307" height="158" viewBox="0 0 307 158">
    <g id="Symbols" fill="none" fill-rule="evenodd" stroke="none" stroke-width="1">
        <g id="Instruments" fill="#fff">
            <path id="trumpet" d="M42.527 89.825S27.083 95.795 17.015 79.5c0 0 10.036-1.92 25.512 10.325Zm-14.442 26.257c2.59 1.248 3.124 4.198 2.56 8.038l-11.249-4.673 1.298-3.178c1.817-.72 4.757-1.457 7.391-.187Zm.716 15.277-12.11-5.288 1.627-3.983 11.829 4.596c-.35 1.48-.813 3.05-1.346 4.675Zm-3.19 7.58-11.855-5.683 1.466-3.588 12.58 4.503a42.322 42.322 0 0 1-2.19 4.768Zm-8.142 6.86c-2.784-.756-4.789-4.91-5.783-7.475l.476-1.167 11.89 4.356c-2.067 3.017-4.388 4.884-6.583 4.286Zm5.632-45.351-6.46 17.854-2.424-1.007-.318.713-1.601-.64.386-1.773-1.456-.934-1.667 4.737 2.235.28.252-1.16 1.378.55-.426.954 2.646 1.028-1.427 3.942-2.18-.952-.304 1.635-2.07-.827.605-1.396-1.977-1.075-1.415 4.817 1.728.09.596-1.371 2.315.924-.262 1.411 1.581.566-1.233 3.409-1.836-.881-.864 2.012-2.072-.827.79-1.614-1.912-1.198-1.778 5.052 1.733.148.657-1.343 2.125.848-.511 1.188 2.157.79-5.129 14.17L0 154.408l7.388 2.585-1.008-5.679 3.722-9.113c.367 1.618 1.506 4.864 4.92 6.607 4.66 2.38 8.47.262 10.84-4.508.232-.466.52-1.08.843-1.814l3.006 1.1.79-2.3-2.729-1.31a125.26 125.26 0 0 0 1.961-5.114l3.367 1.205 1.181-2.316-3.62-1.58a91.346 91.346 0 0 0 1.435-4.73l3.293 1.28.79-2.301-3.464-1.44c1.041-4.542 1.343-8.514-.059-10.192-2.713-3.248-6.91-4.465-10.028-3.252l4.471-10.947 17.757-10.501C28.11 75.4 14.203 78.216 14.203 78.216l8.898 22.232Z"/>
            <path id="guitar" d="M72.852 115.131c-2.16 2.988-5.04 4.77-5.456 8.049-.98 7.746 11.081 7.403 9.514 19.464-1.64 12.605-14.084 15.793-24.652 14.484-10.57-1.309-21.834-7.434-20.278-20.05 1.49-12.07 13.094-8.796 14.075-16.541.654-5.159-5.53-8.218-3.91-16.346 1.618-8.127 8.963-8.461 14.492-7.46l5.415-32.263-2.536-.484-.062-3.126-2.462.18.088.731-1.262.484-.358-2.978 1.356.293.088.732 2.535-.184-.06-3.002-2.59-.321-.093.727-1.358.225.376-2.96 1.26.548-.093.728 2.484.307-.063-3.173-2.547-.667-.212.703-1.385.042.866-2.866 1.158.708-.213.703 2.318.607-.048-2.396s4.796-1.318 6.71-.97c1.94.13 6.259 2.577 6.259 2.577l-.644 2.31 2.397-.023-.03-.735 1.3-.403.123 2.988-1.331-.377-.03-.734-2.635.027-.854 3.058 2.485.309.092-.727 1.357-.225-.374 2.96-1.26-.548.092-.728-2.592-.32-.805 2.893 2.41.798.269-.688 1.386.046-1.09 2.8-1.102-.778.268-.687-2.341-.774-.84 3.014-2.579-.15-2.282 32.652c5.09.314 12.123 2.428 11.665 10.7-.167 3.014-1.17 5.124-2.41 6.837Zm-16.75 11.651c3.813.472 7.252-1.896 7.68-5.291.431-3.395-2.31-6.53-6.123-7.001-3.812-.472-7.251 1.896-7.682 5.29-.43 3.396 2.312 6.53 6.125 7.002Z"/>
            <path id="keyboard" d="m95.968 67.006-.11 4.696 19.639 2.63-.006-9.29-7.29.098.094 1.033-12.327.833Zm.132-5.603 11.849.989.133 1.46 7.408-.099-.005-7.648-19.344 3.511-.041 1.787Zm11.785 21.45 7.514-1.172.103.63-.004-6.68-19.67-2.635-.192 8.155 12.186 1.017.063.685Zm-12.381 3.953-.125 5.32 20.129-1.452-.006-7.705-7.5 1.17.166 1.812-12.664.855Zm11.68 25.631 8.338.328-.007-11.217-20.391 1.47-.189 8.04 12.217 1.019.033.36Zm-12.382 4.28-.148 6.312 20.875.535-.006-9.51-8.22-.323.196 2.128-12.697.859Zm12.663 20.174.102 1.11-13.285.898-.143 6.11 21.403-1.543-.004-6.623-8.073.048Zm-.118-1.287 8.183-.049.008.597-.008-11.924-.012.624-20.894-.536-.207 8.835 12.803 1.068.127 1.385Zm8.196 9.155-21.434 1.545-.066 2.807 21.504 1.53-.004-5.882Zm-.03-44.503-.005-8.289-20.16 1.454-.194 8.303 20.36-1.468ZM75 56.068 120.33 51l-1.791 104.32-42.61-.468L75 56.068Z"/>
            <path id="bass" d="m146.363 16.96-.713.03 3.916 107.121 1.238-.052-2.445-66.877c2.772 1.88 21.303 15.23 18.335 34.099 0 0-9.096-1.605-7.164 10.92.498 3.232 3.11 9.666 10.207 5.13 0 0 6.205 11.968 3.73 24.395-2.474 12.427-11.421 24.51-26.412 25.415-9.543.43-25.155-11.672-28.172-23.952-3.015-12.28 2.657-24.566 2.657-24.566 7.287 4.15 10.05-1.74 10.407-4.995 1.38-12.614-8.072-11.199-8.072-11.199-5.319-19.062 17.568-34.302 17.568-34.302l.149-40.67-2.824-1.557s2.295-10.998 2.865-12.169c.57-1.17 4.614-4.101 5.9-3.692 1.286.408 5.775 4.499 5.816 5.537.04 1.04-.559 3.556-1.781 3.804-.538.11-3.504-1.032-3.504-1.032s2.586-.387 2.8-1.142c.214-.752-.474-3.069-1.298-3.01-.825.058-3.963.602-3.677 2.043.287 1.443 2.659 9.584 2.659 9.584l-2.185 1.138Zm-7.702 95.062c.75.336 1.702-.2 2.128-1.196.426-.996.164-2.077-.585-2.413-.377-.17-.804-.12-1.19.1-.288-.606-.94-1.666-2.193-2.315-1.83-.947-4.356 1.399-3.98 4.414.376 3.016 1.715 5.894.586 8.423-1.055 2.364-3.07 1.82-4.53.211.03-.059.065-.114.092-.178.4-.938.154-1.955-.551-2.271-.706-.317-1.603.187-2.003 1.126-.401.937-.154 1.955.55 2.27.385.174.825.096 1.212-.157.284.776.894 2.026 2.104 2.974 1.888 1.48 4.624-.581 5.183-3.557.559-2.976-1.51-9.155-.203-11.099.949-1.412 2.24.13 2.875 1.083-.03.055-.055.112-.08.171-.427.997-.165 2.078.585 2.414Zm28.387 7.606c.65-.373.78-1.393.29-2.277-.49-.884-1.414-1.297-2.065-.924-.65.373-.779 1.393-.29 2.277.034.06.073.11.11.165-1.243 1.709-3.14 2.422-4.418.199-1.367-2.38-.38-5.321-.34-8.312.039-2.99-2.663-5.066-4.336-3.972-1.145.748-1.664 1.846-1.878 2.465-.398-.18-.818-.191-1.164.008-.691.397-.829 1.48-.308 2.418.521.94 1.502 1.38 2.193.983.691-.396.829-1.48.308-2.418a2.196 2.196 0 0 0-.097-.161c.514-.99 1.6-2.619 2.672-1.32 1.476 1.79.138 8.035 1 10.902.863 2.868 3.74 4.644 5.411 3.025 1.072-1.039 1.528-2.318 1.72-3.105.402.213.837.25 1.192.047Z"/>
            <path id="bone" d="m208.4 150.648 5.644 5.995-14.781.462 5.277-6.749 1.471-86.87-28.47-6.376-1.446 62.009 12.968-.744.14-33.107-12.009-13.316 26.56 1.73-11.297 11.453.2 44.458a3.075 3.075 0 0 1-2.99 3.088l-13.506.375A3.077 3.077 0 0 1 173 129.97l.328-84.906a3.075 3.075 0 0 1 3.469-3.038l31.57 4.07a3.075 3.075 0 0 1 2.682 3.127l-2.553 101.394-.095.03Zm-19.344-30.594-13.022 1.692-.154 6.603 13.143-.644.033-7.65Zm17.002-59.345.19-11.215-28.435-4.074-.19 8.119 28.435 7.17Z" transform="matrix(1 0 0 -1 0 199.105)"/>
            <path id="drum" d="m214.533 96.39 37.47-.364s-6.486 9.032-17.307 9.224c-10.823.193-20.163-8.86-20.163-8.86Zm-3.44.817s1.733 1.545 4.61 3.434l.434 18.806-5.058-.002.014-22.238Zm26.214 10.144a21.766 21.766 0 0 0 6.652-1.58l.316 13.687-6.27-.003-.698-12.104Zm-6.836-.41c1.777.335 3.61.514 5.473.477l.277 12.037-5.292-.002-.458-12.512Zm-7.067-2.166a37.775 37.775 0 0 0 4.201 1.485l.64 13.192-3.995-.002-.846-14.675Zm-6.3-3.246a48.163 48.163 0 0 0 4.89 2.624l.353 15.296-4.21-.001-1.033-17.919Zm39.004-6.327-.016 24.26-4.478-.002-.666-18.2c1.781-1.627 3.511-3.626 5.16-6.058Zm-10.805 9.96a22.956 22.956 0 0 0 2.863-1.685l.827 15.983-2.866-.002-.824-14.296Zm-35.904 16.387c-.218 0-.396-.131-.399-.294-.003-.164.173-.3.394-.302l46.708-.496c.226-.005.402.129.405.293.004.165-.173.3-.393.302l-46.709.497h-.006Zm3.245-25.954c7.739 6.9 15.239 10.398 22.3 10.398 10.858 0 17.503-8.396 18.932-10.398h-41.232Zm28.966 55.167c.253-.223.63-.365 1.053-.365.76 0 1.377.46 1.377 1.027 0 .566-.617 1.025-1.377 1.025s-1.377-.459-1.377-1.025c0-.02 0-.041.002-.061l-8.992-6.66v10.784c.703.046 1.255.486 1.255 1.022 0 .567-.617 1.026-1.377 1.026s-1.377-.46-1.377-1.026c0-.383.282-.718.7-.894V144.93l-8.018 8.52c.232.183.374.43.374.702 0 .567-.616 1.026-1.377 1.026-.76 0-1.377-.459-1.377-1.026 0-.566.617-1.026 1.377-1.026.106 0 .209.01.307.026l8.714-9.258v-22.878h.8v22.848l9.313 6.898Zm-6.665-44.174c-7.477 0-15.37-3.735-23.458-11.102-.098-.089-.119-.212-.052-.316.066-.104.207-.17.36-.17h42.734c.137 0 .264.052.337.138a.233.233 0 0 1 .024.286c-.07.112-7.18 11.164-19.945 11.164Z"/>
            <path id="sax" d="M256.985 96.869c-1.5.321-2.823-.593-3.134-2.245-.31-1.652.512-3.418 2.013-3.74 1.5-.32 2.995.867 3.304 2.52.31 1.651-.682 3.143-2.183 3.465Zm7.96-1.745c.589-1.027 1.932-1.356 2.915-.777.983.578 1.234 1.844.644 2.87-.59 1.027-1.71 1.38-2.693.803-.983-.578-1.457-1.87-.867-2.896Zm2.455 7.093c.59-1.027 1.933-1.356 2.916-.777.983.578 1.234 1.845.643 2.87-.589 1.027-1.71 1.382-2.692.803-.983-.578-1.457-1.87-.867-2.896Zm3.058 8.65c.59-1.025 1.933-1.354 2.916-.777.983.579 1.234 1.846.644 2.871-.59 1.027-1.71 1.381-2.693.803-.983-.579-1.457-1.87-.867-2.897Zm2.697 7.688c.589-1.026 1.933-1.355 2.915-.776.984.577 1.235 1.845.645 2.87-.59 1.027-1.71 1.381-2.693.802-.984-.577-1.457-1.869-.867-2.896Zm4.994 36.04c-1.607.91-3.685.445-4.633-1.343-.947-1.79-.405-4.226 1.202-5.137 1.608-.912 3.678-.2 4.626 1.59.947 1.79.412 3.98-1.195 4.89Zm5.248-46.822-8.837-11.718c21.083-6.135 32.29 8.315 32.29 8.315l-9.924 5.85s-1.011 29.896-.234 33.418c.777 3.522.43 9.442-3.071 11.867-2.877 1.993-10.866 1.531-14.67-.668 2.092-1.284 2.677-3.753 1.524-5.93-1.142-2.156-3.562-3.23-5.723-2.143-3.731-10.535-10.922-31.853-16.763-49.168.292-.085.579-.2.857-.357 1.908-1.081 2.465-4.082 1.442-6.013-.966-1.827-2.983-1.981-4.831-1.138-3.597-10.655-6.246-18.468-6.465-18.88-.7-1.323-2.779-1.55-3.333-.134-.556 1.415-1.608 12.578-2.612 13.146-1.003.57-11.791-2.961-11.791-2.961l-.734-1.388s8.779.97 9.692.23c.915-.737.58-12.876 2.217-15.125 1.637-2.247 8.647-3.798 10.517-.676.79 1.317 5.914 14.765 11.63 29.921-.918.787-1.047 2.371-.464 3.47.475.9 1.241 1.151 2.184 1.093l.962 2.552-.076.037c-1.235.7-1.905 1.933-1.243 3.183.572 1.08 2.002 1.908 3.12 1.568l1.397 3.708c-1.13.738-1.579 2.323-.942 3.524.53 1.004 1.669 1.407 2.72 1.2l1.101 2.922a2.62 2.62 0 0 0-.194.097c-1.235.7-1.426 2.123-.763 3.374.593 1.122 1.617 1.752 2.77 1.333 3.697 9.78 6.42 16.882 6.638 17.034.693.488 3.83.25 4.398-.731.567-.982-2.79-30.812-2.79-30.812Z"/>
        </g>
    </g>
</svg>
