<?xml version="1.0" encoding="UTF-8"?>
<svg width="1309px" height="853px" viewBox="0 0 1309 853" version="1.1" xmlns="http://www.w3.org/2000/svg" xmlns:xlink="http://www.w3.org/1999/xlink">
    <!-- Generator: Sketch 52.6 (67491) - http://www.bohemiancoding.com/sketch -->
    <title>rcbb-logo-full@1x</title>
    <desc>Created with Sketch.</desc>
    <g id="rcbb-logo-full" stroke="none" stroke-width="1" fill="none" fill-rule="evenodd">
        <g id="Group" transform="translate(0.000000, -5.000000)" fill="#FFFFFF">
            <g id="Instruments" transform="translate(118.000000, 0.000000)">
                <g>
                    <path d="M892.147638,276.706428 C892.147638,276.706428 875.0833,300.537441 846.609109,301.044651 C818.132816,301.554216 793.559286,277.666672 793.559286,277.666672 L892.147638,276.706428 Z M784.469654,338.498881 L784.507484,279.822707 C784.507484,279.822707 789.068062,283.900014 796.637151,288.884176 L797.778346,338.503592 L784.469654,338.498881 Z M855.317291,338.525576 L853.481501,306.588627 C859.284154,306.133238 865.160364,304.831451 870.982983,302.418671 L871.814185,338.532643 L855.317291,338.525576 Z M836.697732,338.519295 L835.492437,305.507469 C840.168606,306.390768 844.992941,306.862646 849.892935,306.764502 L850.623258,338.524006 L836.697732,338.519295 Z M819.124794,338.513014 L816.900199,299.792329 C820.409953,301.266849 824.109906,302.606323 827.953822,303.70868 L829.637243,338.516154 L819.124794,338.513014 Z M803.040875,338.506733 L800.323443,291.227077 C804.103259,293.545639 808.43791,295.947427 813.189738,298.151356 L814.118667,338.509873 L803.040875,338.506733 Z M889.372411,290.515727 C894.059088,286.224857 898.610209,280.950974 902.949063,274.532335 L902.90703,338.543635 L891.125186,338.538924 L889.372411,290.515727 Z M876.687909,338.534213 L874.519007,300.81303 C877.049392,299.560708 879.564015,298.085403 882.051317,296.367485 L884.228625,338.537354 L876.687909,338.534213 Z M779.000113,343.274977 C778.991706,342.841571 779.45512,342.485111 780.036226,342.47883 L902.934352,341.169192 C903.528067,341.155059 903.991481,341.509164 903.999888,341.942569 C904.008294,342.37676 903.54383,342.73322 902.963775,342.739501 L780.065649,344.049139 C779.477187,344.049139 779.008519,343.704456 779.000113,343.274977 Z M788.587835,275.570309 C808.949661,293.774904 828.684145,303.004396 847.264823,303.004396 C875.831487,303.004396 893.316155,280.852044 897.077056,275.570309 L788.587835,275.570309 Z M864.80255,403.129727 C865.467235,402.540712 866.461796,402.166496 867.573057,402.166496 C869.573827,402.166496 871.195249,403.37956 871.195249,404.87528 C871.195249,406.370214 869.573827,407.581708 867.573057,407.581708 C865.572287,407.581708 863.949814,406.370214 863.949814,404.87528 C863.949814,404.821413 863.951919,404.767914 863.956069,404.714824 L840.295755,387.142383 L840.295755,415.596873 C842.145851,415.718421 843.596395,416.878819 843.596395,418.292787 C843.596395,419.788506 841.974973,421 839.974203,421 C837.973433,421 836.35096,419.788506 836.35096,418.292787 C836.35096,417.281231 837.093831,416.399452 838.194106,415.934975 L838.194106,387.742343 L817.096888,410.220188 C817.70669,410.704513 818.080275,411.356785 818.080275,412.074362 C818.080275,413.570082 816.458853,414.781575 814.458083,414.781575 C812.457313,414.781575 810.83484,413.570082 810.83484,412.074362 C810.83484,410.579428 812.457313,409.367934 814.458083,409.367934 C814.735867,409.367934 815.006338,409.391287 815.266173,409.435509 L838.194106,385.007727 L838.194106,344.642806 L840.295755,344.642806 L840.295755,384.928608 L864.80255,403.129727 Z M785.542546,275.282157 C785.285094,275.047396 785.231502,274.723127 785.405939,274.448323 C785.579325,274.175089 785.950266,274 786.355884,274 L898.794103,274 C899.153485,274 899.487647,274.137402 899.680999,274.364312 C899.8733,274.591221 899.89852,274.875447 899.745099,275.118845 C899.560154,275.413278 880.854428,304.574706 847.264823,304.574706 C827.591287,304.574706 806.824894,294.719445 785.542546,275.282157 Z" id="drum"></path>
                    <path d="M904.18847,262.585723 C906.442222,266.402401 905.331041,270.996672 901.909606,273.148009 C898.488172,275.299346 894.395006,274.226917 892.141254,270.410238 C889.887502,266.593559 890.330091,261.474415 893.751525,259.323078 C897.17296,257.171741 901.937856,258.769044 904.18847,262.585723 Z M926.52824,257.081022 C929.478834,257.628576 931.239774,260.541305 930.703017,263.619271 C930.169399,266.693998 927.717894,268.582898 924.767299,268.038584 C921.816705,267.49103 919.48134,264.71438 920.018097,261.639653 C920.551715,258.561686 923.577645,256.533468 926.52824,257.081022 Z M938.983516,272.451416 C941.934111,272.99897 943.695051,275.911699 943.158294,278.989666 C942.624676,282.064393 940.173171,283.956532 937.222576,283.408978 C934.271982,282.861424 931.936617,280.084774 932.473374,277.010047 C933.006992,273.93208 936.032922,271.903862 938.983516,272.451416 Z M954.329749,291.139535 C957.280343,291.687089 959.041284,294.603058 958.504526,297.677784 C957.970908,300.755751 955.519403,302.644651 952.568809,302.097097 C949.618214,301.549543 947.282849,298.776133 947.819606,295.698166 C948.353225,292.623439 951.379154,290.595221 954.329749,291.139535 Z M967.915041,307.770276 C970.865636,308.31459 972.626576,311.230558 972.092957,314.305285 C971.5562,317.383252 969.107834,319.272152 966.154101,318.724598 C963.203506,318.180284 960.87128,315.403633 961.404898,312.325667 C961.938517,309.25094 964.964446,307.222722 967.915041,307.770276 Z M1004.74098,383.974255 C1008.69289,387.557656 1009.33951,393.467352 1006.18488,397.177112 C1003.03026,400.883632 997.474351,401.606145 993.522437,398.025983 C989.570524,394.442582 988.716734,387.914052 991.87136,384.204292 C995.025985,380.494532 1000.78592,380.390853 1004.74098,383.974255 Z M944.630453,255.269881 C991.237296,221.03317 1031.94923,246.748773 1031.94923,246.748773 L1012.67933,270.20936 C1012.67933,270.20936 1037.08138,345.243712 1042.17272,353.275585 C1047.26407,361.307459 1051.73391,376.298777 1045.25829,385.471119 C1039.93781,393.007277 1019.77018,399.072492 1008.38527,397.053994 C1012.40311,391.980208 1011.62779,385.3318 1006.81895,380.974047 C1002.05405,376.658413 995.104458,376.178899 990.738206,380.825009 C972.033318,358.070734 935.06927,311.706833 905.045398,274.045479 C905.692018,273.572444 906.297831,273.02813 906.844005,272.386617 C910.588749,267.983504 909.264121,260.04235 904.998314,256.177072 C900.964788,252.519151 895.838914,253.957696 892.028252,257.716055 C873.546228,234.543825 859.967214,217.563168 859.053785,216.736977 C856.13458,214.089925 850.788981,215.402111 850.691674,219.413188 C850.591228,223.424265 858.036772,252.049356 856.065523,254.365931 C854.097414,256.682506 824.246183,257.664216 824.246183,257.664216 L821.182587,254.884326 C821.182587,254.884326 843.760915,249.366665 845.355492,246.709894 C846.953208,244.056362 835.201051,214.261643 837.225661,207.208239 C839.250272,200.158075 855.186623,189.987825 862.619611,196.04008 C865.755402,198.593172 890.527843,227.312223 918.301102,259.731313 C916.737915,262.511203 917.845957,266.55468 920.27549,268.754616 C922.259294,270.556037 924.381211,270.487997 926.660075,269.493328 C928.216984,271.307709 929.773894,273.128569 931.333942,274.952669 C931.28372,275.004509 931.230358,275.056348 931.180135,275.111428 C928.75688,277.962597 928.207567,281.623757 930.969826,284.125011 C933.355414,286.286067 937.636915,287.050699 940.097837,285.197439 C942.376701,287.86069 944.643009,290.510982 946.887344,293.132113 C944.759149,295.980043 945.073042,300.315116 947.728577,302.71917 C949.944662,304.727949 953.12126,304.702029 955.531959,303.237565 C957.343122,305.353262 959.129174,307.439799 960.886975,309.490697 C960.752001,309.623536 960.620166,309.759614 960.494609,309.905413 C958.071354,312.756582 958.878059,316.456622 961.643457,318.961115 C964.120073,321.206411 967.218198,321.844684 969.691675,319.764627 C987.633803,340.678601 1000.75767,355.828678 1001.43254,356.010116 C1003.58585,356.59331 1011.1287,353.175147 1011.64976,350.226778 C1012.16769,347.28165 977.024218,276.349094 977.024218,276.349094 L944.630453,255.269881 Z" id="sax" transform="translate(934.830546, 297.279681) rotate(14.000000) translate(-934.830546, -297.279681) "></path>
                    <path d="M135.521744,313.028942 C129.667467,305.270687 127.395415,296.630222 119.466479,293.052982 C100.731802,284.601867 92.3143301,315.301334 63.173874,302.042091 C32.7170425,288.180295 34.2685939,254.323572 45.6914328,228.665876 C57.117326,203.005105 81.1938605,179.308781 111.739265,192.967677 C140.965239,206.036316 123.800439,232.79152 142.535116,241.242635 C155.011666,246.871588 167.466837,233.63079 186.671866,243.984867 C205.876896,254.338943 201.066476,273.128763 194.292183,286.308076 L271.307772,324.85918 L274.478068,318.833648 L282.391591,321.090148 L283.83319,314.738746 L281.924293,314.397504 L281.6769,310.837522 L289.446874,312.233232 L287.666255,315.427378 L285.757358,315.086137 L284.269946,321.625068 L291.868882,323.78934 L294.669616,317.499423 L292.910377,316.706267 L293.389891,313.106319 L300.549018,316.337357 L298.200312,319.091885 L296.441072,318.298729 L293.7564,324.327334 L301.789038,326.617651 L305.426632,320.705867 L303.820104,319.626805 L304.782188,316.100639 L311.327414,320.496818 L308.654958,322.873214 L307.04843,321.794152 L303.73764,327.17409 L309.80335,328.901819 C309.80335,328.901819 309.430734,342.019647 307.085081,346.578761 C305.264757,351.377666 295.784412,360.38522 295.784412,360.38522 L290.466989,356.978951 L288.680261,363.044447 L290.552507,363.533253 L290.567778,367.123978 L282.95357,365.131864 L284.926606,362.063761 L286.795798,362.552567 L288.756617,355.884517 L281.716605,351.371517 L279.028878,357.403197 L280.788118,358.196354 L280.308603,361.793227 L273.149476,358.565264 L275.498183,355.810735 L277.257422,356.603892 L280.058156,350.310901 L273.396869,346.046915 L269.536316,351.512933 L271.060379,352.721114 L269.87839,356.18272 L263.672185,351.276216 L266.475973,349.093498 L268.000036,350.298604 L271.747582,344.989373 L264.811415,340.544007 L267.169284,334.152639 L186.766548,303.207232 C182.063026,315.805511 171.333498,331.923808 150.873178,324.385745 C143.415537,321.638175 138.879444,317.478663 135.521744,313.028942 Z M119.090808,261.775555 C114.970645,271.032124 118.28449,281.536839 126.497328,285.238237 C134.707112,288.942709 144.703623,284.442006 148.823786,275.188511 C152.943949,265.931942 149.630104,255.427228 141.42032,251.722756 C133.207483,248.018284 123.210971,252.518987 119.090808,261.775555 Z" id="guitar" transform="translate(174.733211, 278.047691) rotate(245.000000) translate(-174.733211, -278.047691) "></path>
                    <path d="M48.007837,414.082814 C48.007837,414.082814 76.8211864,387.341084 113.635945,414.12126 C113.635945,414.12126 93.1633743,427.206528 48.007837,414.082814 Z M56.4838123,343.795837 C49.6439872,343.353712 45.8253838,337.364421 43.6429305,328.456003 L72.6880449,328.736107 L72.6576947,336.845404 C69.2833074,340.030905 63.4422789,344.246201 56.4838123,343.795837 Z M41.2535443,310.968702 L72.7515043,311.83373 L72.7128768,321.997125 L42.4537556,322.398059 C41.9074525,318.847324 41.5266958,314.997262 41.2535443,310.968702 Z M41.5349731,291.542639 L72.8232411,293.500624 L72.7873727,302.656193 L40.9528017,303.924901 C40.8976195,299.695874 41.0852388,295.491562 41.5349731,291.542639 Z M53.4101676,269.312787 C60.2389562,268.505427 68.3838387,275.832079 72.872905,280.569138 L72.8618686,283.545934 L42.6827615,284.526299 C44.5589539,276.090214 48.0216326,269.947141 53.4101676,269.312787 Z M121,414.445302 L81.4675218,373.626954 L79.8037806,328.80476 L86.0614341,328.865175 L86.1276527,327.022528 L90.2387214,327.006051 L90.9698846,331.232332 L95.0230121,331.990261 L94.476709,320.140747 L89.2868297,321.50557 L89.7641551,324.268168 L86.2269805,324.284645 L86.3152719,321.815881 L79.5471837,321.906503 L79.1802225,312.009482 L84.8501864,312.166011 L84.063841,308.315949 L89.3806393,308.29398 L89.2895888,311.888653 L94.6201826,312.492799 L93.4448032,300.68997 L89.5434266,302.021839 L89.4523761,305.553351 L83.5065015,305.578066 L82.8250022,302.255259 L78.8242977,302.414534 L78.5070005,293.85762 L83.3519915,294.162439 L83.4651149,288.991493 L88.7846723,288.969524 L88.4811706,293.201297 L93.7786551,294.134978 L93.1964836,281.497327 L89.2316475,282.705621 L88.9805688,286.228894 L83.5230562,286.250863 L83.5920338,283.197176 L78.1179665,283.375674 L76.7991136,247.802418 L84.3425108,235 L65.699228,235.876013 L72.9998239,247.420707 L72.9115325,270.674863 C70.6545833,267.456409 65.2356981,261.354527 56.1334057,260.558152 C43.7008718,259.470688 37.1728257,267.478378 36.1905838,280.025406 C36.0940151,281.250176 36.0084828,282.851165 35.9477824,284.743243 L28.3188529,284.99314 L28.6278728,290.732534 L35.8319,291.185644 C35.8125862,295.04669 35.8788048,299.4652 36.0636649,304.119875 L27.543544,304.460394 L27,310.578753 L36.4140714,310.836888 C36.6651501,314.719904 37.0100385,318.65235 37.4680501,322.463966 L29.0444979,322.576557 L29.3535179,328.315951 L38.2985412,328.403827 C40.0533329,339.272975 42.9338401,348.239061 47.5332707,350.674871 C56.4341483,355.387215 66.8001115,354.338197 72.6107899,348.922846 L72.5031847,376.856392 L42.6248202,415.568466 C92.766063,432.921207 121,414.445302 121,414.445302 L121,414.445302 Z" id="trumpet" transform="translate(74.000000, 329.000000) rotate(-162.000000) translate(-74.000000, -329.000000) "></path>
                    <path d="M395.716524,227.501297 L384.871434,233.444743 L404.715386,281.789301 L425.876516,269.519081 L416.061451,252.989451 L413.829748,254.569487 L395.716524,227.501297 Z M408.655976,220.410074 L421.992697,248.790155 L418.838447,251.02335 L428.810463,267.81784 L446.231312,257.716411 L412.783172,218.148242 L408.655976,220.410074 Z M363.047179,245.405113 L376.7634,274.591171 L375.283379,275.639112 L387.839514,291.260809 L386.540147,292.328161 L401.757485,283.504431 L381.882997,235.082499 L363.047179,245.405113 Z M349.988705,252.561563 L337.702706,259.294673 L367.49058,303.373998 L385.040006,293.198014 L372.506692,277.605169 L368.59876,280.372212 L349.988705,252.561563 Z M293.978273,283.257022 L307.72832,312.516648 L306.951099,313.067243 L317.172295,332.550911 L342.721811,317.736098 L312.545317,273.081704 L293.978273,283.257022 Z M280.906776,290.420609 L266.331295,298.408425 L292.57467,346.813773 L314.235407,334.253857 L304.159565,315.044806 L299.565371,318.299399 L280.906776,290.420609 Z M229.678085,318.495524 L215.566808,326.228943 L247.241378,373.100152 L262.32729,364.352629 L251.597252,345.968777 L249.201261,347.666132 L229.678085,318.495524 Z M242.954358,311.219714 L257.36421,341.883381 L254.375147,344.000877 L265.251567,362.634961 L263.900576,363.440364 L291.062182,347.690785 L289.625442,348.486623 L263.358418,300.037654 L242.954358,311.219714 Z M212.57685,327.867533 L206.093858,331.420414 L230.898875,382.576305 L244.297608,374.807089 L212.57685,327.867533 Z M315.535275,271.443114 L345.665581,316.029161 L364.545595,305.081639 L334.711514,260.933939 L315.535275,271.443114 Z M169.181368,297.602519 L393.055482,165.158212 L464.239508,262.054756 L224.173065,395.584503 L169.181368,297.602519 Z" id="keyboard" transform="translate(316.710438, 280.371358) rotate(-60.000000) translate(-316.710438, -280.371358) "></path>
                    <path d="M374.943345,87.6895974 L373.525689,88.8996292 L555.160662,305.251899 L557.643324,303.132838 L444.244361,168.059056 C453.037661,167.466973 513.084465,165.122393 537.495304,209.173806 C537.495304,209.173806 516.03671,220.612895 540.331356,243.517233 C546.600523,249.426447 562.438932,258.560059 569.804879,237.601478 C569.804879,237.601478 602.056046,252.405581 617.057268,282.262321 C632.05849,312.122331 633.079833,351.779221 603.464337,378.012987 C584.375488,394.409091 532.400794,394.606071 506.253304,373.974508 C480.109059,353.339675 471.967578,318.580935 471.967578,318.580935 C493.799337,315.372889 489.986567,298.63611 485.453427,291.291287 C467.882236,262.821103 450.577127,281.117758 450.577127,281.117758 C408.668618,250.123377 431.434974,181.25974 431.434974,181.25974 L365.862245,96.4572556 L357.483886,97.8078398 C357.483886,97.8078398 344.426365,71.2114691 343.712485,67.8529946 C342.998605,64.4945201 346.636149,51.8291145 349.965428,50.5897164 C353.291461,49.3503184 369.227217,50.563555 370.992449,52.6564699 C372.75768,54.7526551 382.975569,60.59041 373.819856,68.2729652 C364.664143,75.9555203 364.525342,67.0060181 364.525342,67.0060181 C364.525342,67.0060181 363.437182,58.8875544 361.824462,60.3493247 C360.208496,61.8078248 353.671116,63.6213822 356.60127,66.1525012 C359.531424,68.6868904 377.638026,81.7610685 377.638026,81.7610685 L374.943345,87.6895974 Z M512.99093,297.837431 C515.090589,297.317071 516.202191,294.658184 515.474822,291.897088 C514.747453,289.135992 512.453174,287.317298 510.353514,287.837658 C509.297528,288.099428 508.492945,288.897429 508.044379,289.979486 C506.466063,289.191323 503.395588,288.049626 499.745165,288.740927 C494.41029,289.749179 492.962359,298.725061 498.623273,304.37428 C504.284186,310.023498 511.724275,313.820768 513.472869,320.906584 C515.108679,327.529673 510.042518,329.677397 504.406064,328.710863 C504.375678,328.53727 504.357468,328.367092 504.310802,328.191146 C503.62358,325.592378 501.465817,323.882706 499.489291,324.371268 C497.511352,324.862381 496.464215,327.366902 497.151438,329.96567 C497.83597,332.562947 499.996423,334.27411 501.970258,333.784057 C503.049457,333.518478 503.838002,332.64155 504.232314,331.486064 C506.077935,332.635842 509.367357,334.239082 513.414219,334.241114 C519.732158,334.244695 522.077102,325.515904 518.422072,318.430556 C514.764351,311.343718 500.470331,301.879601 500.037263,295.719763 C499.721316,291.2457 504.897656,292.35073 507.758667,293.292941 C507.787914,293.455898 507.825371,293.616734 507.868208,293.780553 C508.595577,296.541648 510.889856,298.360343 512.99093,297.837431 Z M584.165384,267.567267 C584.907856,265.737688 583.518872,263.407264 581.068628,262.363973 C578.61678,261.318117 576.031045,261.956885 575.288574,263.786463 C574.546102,265.616042 575.935086,267.946466 578.38533,268.989757 C578.550875,269.061029 578.715687,269.104233 578.880472,269.158151 C579.078447,274.725165 576.305575,279.281814 570.045064,276.729355 C563.346559,273.997752 560.61754,266.279111 555.841351,259.996571 C551.069181,253.715084 542.096338,253.777407 540.405223,258.763441 C539.245142,262.173249 539.953067,265.296503 540.514403,266.93179 C539.397841,267.205186 538.509578,267.860072 538.113649,268.834862 C537.326626,270.781419 538.798906,273.255903 541.40345,274.36323 C544.009597,275.473121 546.757134,274.797429 547.545759,272.853436 C548.334384,270.909443 546.860502,268.432395 544.255957,267.325068 C544.102473,267.256958 543.94896,267.199562 543.794633,267.14624 C543.251835,264.25497 542.857271,259.110311 547.191074,260.074834 C553.157087,261.402898 560.522543,276.557525 566.966094,281.124281 C573.412062,285.689526 582.259334,284.721559 583.094058,278.644737 C583.630298,274.747608 582.497503,271.347867 581.617583,269.401771 C582.797535,269.192167 583.760545,268.565452 584.165384,267.567267 Z" id="bass" transform="translate(485.476057, 220.003738) rotate(-312.000000) translate(-485.476057, -220.003738) "></path>
                    <path d="M663.961417,141.52747 L659.728993,120.220961 L693.355367,139.855178 L672.169117,147.577877 L547.764352,339.900519 L602.401103,393.975947 L692.085132,257.245473 L662.113168,240.777981 L615.639057,314.661357 L623.868687,361.250046 L567.01818,320.243584 L608.192616,310.410948 L669.731071,210.661878 C672.045449,206.91045 676.934744,205.698327 680.733464,207.934234 L711.388304,225.977518 C711.456057,226.017397 711.523226,226.05826 711.589789,226.100095 C715.377354,228.48056 716.518034,233.480736 714.137569,237.2683 L595.013325,426.807242 C594.830844,427.097588 594.630108,427.376054 594.412329,427.640956 C591.571417,431.0966 586.467049,431.594938 583.011405,428.754026 L518.241976,375.50656 C515.041834,372.875697 514.342589,368.254176 516.621199,364.794367 L663.706269,141.462541 L663.961417,141.52747 Z M664.470226,237.030789 L695.884276,251.453373 L705.43437,236.893493 L675.210581,219.956041 L664.470226,237.030789 Z M543.787422,346.048626 L527.725503,370.879433 L585.494113,419.752005 L597.236414,401.849928 L543.787422,346.048626 Z" id="bone" transform="translate(615.565751, 275.616881) scale(1, -1) rotate(141.000000) translate(-615.565751, -275.616881) "></path>
                </g>
            </g>
            <g id="logo/whiteorange" transform="translate(0.000000, 257.000000)">
                <path d="M930.543005,533.167043 L1307.64352,533.167043 L1289.4843,539.950339 L929.186528,539.950339 L930.543005,533.167043 Z M836.946114,539.950339 L18.1592226,539.950339 L0,533.167043 L834.233161,533.167043 L841.015544,533.167043 M925.117098,553.51693 L1250.6715,553.51693 L1232.52496,560.300226 L922.404145,560.300226 M827.450777,560.300226 L73.7620846,560.300226 L55.615544,553.51693 L828.807254,553.51693 L827.450777,560.300226 Z M914.265285,573.866817 L1192.34301,573.866817 L1174.26101,580.650113 L908.839378,580.650113 M830.163731,580.650113 L133.440641,580.650113 L115.300518,573.866817 L828.807254,573.866817 L830.163731,580.650113 Z M899.344041,533.167043 L906.126425,533.167043 L904.769948,539.950339 L900.700518,539.950339 L899.344041,533.167043 Z M27.1295337,438.200903 L33.3737048,459.087957 L54.2590674,465.334994 L33.3737048,471.580214 L27.1295337,492.467269 L20.8853626,471.580214 L0,465.334994 L20.8853626,459.087957 L27.1295337,438.200903 Z M1280.51399,438.200903 L1286.75816,459.087957 L1307.64352,465.334994 L1286.75816,471.580214 L1280.51399,492.467269 L1274.26982,471.580214 L1253.38446,465.334994 L1274.26982,459.087957 L1280.51399,438.200903 Z" id="Lines"></path>
                <path d="M64.292344,327.863124 C72.3289272,327.863124 80.1593267,327.038761 87.7837774,325.390009 L117.148069,374.852311 L126.730101,374.852311 L95.8203204,322.916894 C106.947897,319.001109 115.808612,312.972951 122.402732,304.83224 C128.996851,296.691529 132.293862,286.129372 132.293862,273.145453 C132.293862,264.077319 130.542325,256.142821 127.039199,249.341721 C123.536073,242.54062 118.745105,236.821599 112.666151,232.184485 C106.587197,227.547371 99.4265028,224.043826 91.1838533,221.673746 C82.9412039,219.303665 73.9774571,218.118643 64.292344,218.118643 L30.9097808,218.118643 L30.9097808,374.852311 L38.9463238,374.852311 L38.9463238,327.863124 L64.292344,327.863124 Z M38.9463238,320.443779 L38.9463238,225.537988 L64.292344,225.537988 C83.0443715,225.537988 97.7263705,229.659805 108.338782,237.903564 C118.951193,246.147322 124.257319,257.894501 124.257319,273.145453 C124.257319,288.396406 118.951193,300.092062 108.338782,308.232773 C97.7263705,316.373485 83.0443715,320.443779 64.292344,320.443779 L38.9463238,320.443779 Z M0,193.387492 L71.0924958,193.387492 C84.2807349,193.387492 96.4899762,195.139265 107.720586,198.642862 C118.951196,202.146459 128.687679,207.29873 136.930329,214.099831 C145.172978,220.900931 151.612452,229.299134 156.248942,239.294691 C160.885432,249.290247 163.203643,260.779813 163.203643,273.763732 C163.203643,284.06843 161.761201,292.827291 158.876273,300.04058 C155.991346,307.253868 152.797367,313.230503 149.294241,317.970664 C145.172916,323.329107 140.536496,327.863106 135.38484,331.572797 L174.022066,399.583462 L96.7476139,399.583462 L65.8378331,347.338906 L65.8378331,399.583462 L0,399.583462 L0,193.387492 Z M65.8378331,294.78521 L69.237909,294.78521 C77.0684259,294.78521 83.7139623,293.033438 89.1747176,289.529841 C94.6354728,286.026244 97.3658095,280.152654 97.3658095,271.908896 C97.3658095,263.665138 94.6354728,257.791548 89.1747176,254.287951 C83.7139623,250.784354 77.0684259,249.032581 69.237909,249.032581 L65.8378331,249.032581 L65.8378331,294.78521 Z M180.204022,193.387492 L301.679461,193.387492 L301.679461,247.486884 L246.041855,247.486884 L246.041855,270.363199 L300.752167,270.363199 L300.752167,321.680337 L246.041855,321.680337 L246.041855,345.484069 L303.843145,345.484069 L303.843145,399.583462 L180.204022,399.583462 L180.204022,193.387492 Z M280.969907,374.852311 L280.969907,367.432966 L219.150346,367.432966 L219.150346,299.73144 L277.878929,299.73144 L277.878929,292.312095 L219.150346,292.312095 L219.150346,225.537988 L280.969907,225.537988 L280.969907,218.118643 L211.113803,218.118643 L211.113803,374.852311 L280.969907,374.852311 Z M322.389014,399.583462 L322.389014,193.387492 L379.572108,193.387492 C398.942334,193.387492 416.200123,195.551446 431.345991,199.879419 C446.491859,204.207392 459.267774,210.699254 469.674119,219.3552 C480.080464,228.011147 488.013895,238.779394 493.47465,251.660266 C498.935406,264.541138 501.665742,279.431203 501.665742,296.330907 C501.665742,313.230611 498.935406,328.120676 493.47465,341.001548 C488.013895,353.88242 480.080464,364.650668 469.674119,373.306614 C459.267774,381.96256 446.491859,388.505945 431.345991,392.936965 C416.200123,397.367985 398.942334,399.583462 379.572108,399.583462 L322.389014,399.583462 Z M361.335337,367.432966 L361.335337,225.537988 L379.572108,225.537988 C405.74252,225.537988 426.091256,231.4631 440.618925,243.313503 C455.146595,255.163905 462.410321,272.836196 462.410321,296.330907 C462.410321,319.825618 455.146595,337.549432 440.618925,349.502881 C426.091256,361.456331 405.74252,367.432966 379.572108,367.432966 L361.335337,367.432966 Z M353.298794,374.852311 L379.572108,374.852311 C409.657778,374.852311 432.37624,367.99979 447.728175,354.294542 C463.080109,340.589294 470.755961,321.268276 470.755961,296.330907 C470.755961,271.393539 463.080109,252.124043 447.728175,238.521842 C432.37624,224.919641 409.657778,218.118643 379.572108,218.118643 L353.298794,218.118643 L353.298794,374.852311 Z M388.226847,340.846979 C403.681814,340.846979 415.633477,337.188866 424.082192,329.87253 C432.530908,322.556195 436.755203,311.375766 436.755203,296.330907 C436.755203,281.286049 432.530908,270.157142 424.082192,262.943854 C415.633477,255.730565 403.681814,252.123975 388.226847,252.123975 L388.226847,340.846979 Z M539.066577,372.688335 C541.951504,373.306617 545.042451,373.821844 548.339511,374.234032 C551.224438,374.64622 554.26387,375.006879 557.457897,375.31602 C560.651923,375.625161 563.897418,375.779729 567.194477,375.779729 C572.964332,375.779729 578.579553,375.109934 584.040308,373.770323 C589.501063,372.430712 594.395063,370.215235 598.722454,367.123826 C603.049845,364.032417 606.501403,360.065168 609.07723,355.22196 C611.653058,350.378752 612.940953,344.45364 612.940953,337.446445 C612.940953,331.469721 611.446995,325.802222 608.459035,320.443779 C605.471074,315.085336 601.658906,309.933065 597.022416,304.98681 C592.385926,300.040555 587.44041,295.300465 582.185721,290.766398 C576.931032,286.232331 571.985517,281.64681 567.349026,277.009696 C562.712536,272.372582 558.900368,267.735537 555.912407,263.098423 C552.924447,258.461309 551.430489,253.669697 551.430489,248.723442 C551.430489,241.30406 553.800215,235.585038 558.539739,231.566206 C563.279262,227.547374 570.903599,225.537988 581.412977,225.537988 C583.061507,225.537988 584.761527,225.589511 586.51309,225.692558 C588.264653,225.795605 589.964674,225.950173 591.613204,226.156267 C593.261734,226.362361 594.910239,226.465406 596.558769,226.465406 L596.558769,218.427782 C595.116306,218.427782 593.570832,218.324737 591.922302,218.118643 C590.479838,217.912549 588.882849,217.757981 587.131286,217.654934 C585.379723,217.551887 583.576671,217.500364 581.722074,217.500364 C570.594498,217.500364 561.424688,220.024977 554.21237,225.074279 C547.000051,230.123581 543.393946,238.006556 543.393946,248.723442 C543.393946,254.494073 544.887904,259.903958 547.875864,264.95326 C550.863825,270.002562 554.675993,274.948742 559.312483,279.79195 C563.948974,284.635158 568.894489,289.323725 574.149178,293.857792 C579.403867,298.391859 584.349383,302.977381 588.985873,307.614495 C593.622363,312.251609 597.434531,317.043221 600.422492,321.989476 C603.410452,326.935731 604.90441,332.088002 604.90441,337.446445 C604.90441,347.338955 601.555884,354.861272 594.858731,360.01362 C588.161579,365.165969 578.940253,367.742105 567.194477,367.742105 C560.188225,367.742105 553.800268,367.226878 548.030413,366.196408 C544.93942,365.78422 541.951504,365.268993 539.066577,364.650711 L539.066577,372.688335 Z M513.102361,335.591609 C517.635818,337.034267 522.375271,338.167766 527.32086,338.992142 C531.442185,340.022612 536.130122,340.846975 541.384811,341.465257 C546.6395,342.083539 551.945626,342.392675 557.303348,342.392675 C566.782394,342.392675 571.521847,338.889131 571.521847,331.881936 C571.521847,329.202715 570.079405,326.472011 567.194477,323.689743 C564.30955,320.907474 560.651929,317.816111 556.221505,314.415561 C551.791081,311.015011 547.051629,307.253853 542.003006,303.131974 C536.954383,299.010095 532.214931,294.270005 527.784507,288.911562 C523.354083,283.553119 519.696462,277.524961 516.811535,270.826908 C513.926607,264.128854 512.484165,256.45197 512.484165,247.796024 C512.484165,238.109608 514.235702,229.556837 517.738828,222.137455 C521.241954,214.718073 526.084438,208.535347 532.266425,203.589092 C538.448412,198.642837 545.712138,194.881679 554.057821,192.305504 C562.403503,189.72933 571.315734,188.441262 580.794781,188.441262 C585.740371,188.441262 590.685886,188.698876 595.631476,189.21411 C600.577065,189.729345 605.007423,190.19305 608.922682,190.605238 C613.456139,191.22352 617.886496,191.841792 622.213887,192.460074 L622.213887,250.269139 C620.565357,250.063045 618.710789,249.856954 616.650127,249.65086 C615.001597,249.444766 613.147029,249.238675 611.086366,249.032581 C609.025704,248.826487 606.862041,248.723442 604.595312,248.723442 C603.358915,248.723442 601.813441,248.774965 599.958845,248.878012 C598.104249,248.981059 596.352712,249.238672 594.704182,249.65086 C593.055652,250.063048 591.61321,250.784366 590.376813,251.814836 C589.140416,252.845306 588.522226,254.287942 588.522226,256.142787 C588.522226,257.791539 589.913152,259.852447 592.695047,262.325575 C595.476941,264.798702 598.876983,267.683974 602.895274,270.981478 C606.913566,274.278981 611.343923,278.091662 616.18648,282.419635 C621.029037,286.747608 625.459394,291.693789 629.477686,297.258325 C633.495977,302.822862 636.896019,309.108633 639.677913,316.115828 C642.459808,323.123022 643.850734,330.954475 643.850734,339.610421 C643.850734,348.678555 642.408292,357.179803 639.523365,365.11442 C636.638437,373.049037 632.156564,379.953081 626.07761,385.826759 C619.998656,391.700437 612.219772,396.337481 602.740725,399.738031 C593.261679,403.138581 582.031237,404.838831 569.049064,404.838831 C561.218547,404.838831 553.954822,404.478172 547.257669,403.756843 C540.560516,403.035514 534.636201,402.159628 529.484545,401.129158 C523.508624,400.098689 518.047951,398.862144 513.102361,397.419486 L513.102361,335.591609 Z M678.178359,247.486884 L640.159328,247.486884 L640.159328,193.387492 L784.198907,193.387492 L784.198907,247.486884 L746.179877,247.486884 L746.179877,399.583462 L678.178359,399.583462 L678.178359,247.486884 Z M716.197389,374.852311 L716.197389,225.537988 L760.398376,225.537988 L760.398376,218.118643 L663.95986,218.118643 L663.95986,225.537988 L708.160846,225.537988 L708.160846,374.852311 L716.197389,374.852311 Z M987.258398,193.387492 L1041.35051,193.387492 L1098.22451,272.836314 L1098.22451,193.387492 L1162.82595,193.387492 L1162.82595,399.583462 L1108.42474,399.583462 L1051.85984,320.443779 L1051.85984,399.583462 L987.258398,399.583462 L987.258398,193.387492 Z M1024.04104,374.852311 L1024.04104,232.029915 L1126.04331,374.852311 L1134.07986,374.852311 L1134.07986,218.118643 L1126.04331,218.118643 L1126.04331,360.941038 L1024.04104,218.118643 L1016.00449,218.118643 L1016.00449,374.852311 L1024.04104,374.852311 Z M1184.4628,193.387492 L1305.93824,193.387492 L1305.93824,247.486884 L1250.30063,247.486884 L1250.30063,270.363199 L1305.01094,270.363199 L1305.01094,321.680337 L1250.30063,321.680337 L1250.30063,345.484069 L1308.10192,345.484069 L1308.10192,399.583462 L1184.4628,399.583462 L1184.4628,193.387492 Z M1285.22869,374.852311 L1215.37258,374.852311 L1215.37258,218.118643 L1285.22869,218.118643 L1285.22869,225.537988 L1223.40912,225.537988 L1223.40912,292.312095 L1282.13771,292.312095 L1282.13771,299.73144 L1223.40912,299.73144 L1223.40912,367.432966 L1285.22869,367.432966 L1285.22869,374.852311 Z M823.599428,192.44561 C654.304694,-77.7817144 1006.79762,-52.4438692 846.988668,199.761799 C846.988668,199.761799 857.694423,222.890709 857.694423,222.890709 C986.275141,113.051736 1010.45885,346.118319 913.935902,383.507823 C913.935902,383.507823 951.56171,520.35109 905.311852,575.737625 C859.061994,631.12416 818.602001,583.229679 839.860871,544.629666 C861.119428,506.038615 895.72559,518.47962 896.51975,542.534003 C897.313911,566.588385 877.118816,577.29523 878.470576,577.15365 C915.026347,561.996089 929.285486,496.347234 896.72911,389.85961 C823.619708,412.980042 716.866383,331.631097 823.599428,192.44561 Z M841.80064,237.885023 L831.826861,214.965156 C737.270249,326.030455 833.388211,398.897831 888.709436,371.030923 C869.044414,303.103069 865.953924,292.462819 853.835869,264.55418 C789.374627,327.194163 860.747254,304.18253 856.621499,326.871393 C825.409681,334.288885 769.868338,323.379088 841.80064,237.885023 Z M904.025341,363.96946 C975.670282,330.565999 948.531361,170.587538 867.456952,254.849648 C882.726893,287.95602 904.025341,363.96946 904.025341,363.96946 Z M833.472461,176.859223 C942.640941,13.2029057 724.257384,-13.9301757 833.472461,176.859223 Z" id="REDSTONE"></path>
                <path d="M130.398104,451.224831 C126.00312,446.829255 119.817586,444.14307 113.550664,444.14307 C100.691265,444.14307 90.354912,454.155215 90.354912,466.772145 C90.354912,479.307676 100.691265,489.482619 113.550664,489.482619 C119.817586,489.482619 125.921731,486.877834 130.398104,482.645057 L134.386146,486.959233 C128.770332,492.250204 121.119804,495.587586 113.225109,495.587586 C96.7846116,495.587586 83.7624352,482.889256 83.7624352,466.772145 C83.7624352,450.817833 96.9473888,438.200903 113.469275,438.200903 C121.282581,438.200903 128.851721,441.375485 134.304757,446.503657 L130.398104,451.224831 Z M180.072282,438.200903 C196.675556,438.200903 209.86051,450.817833 209.86051,466.853545 C209.86051,482.889256 196.675556,495.587586 180.072282,495.587586 C163.387618,495.587586 150.202664,482.889256 150.202664,466.853545 C150.202664,450.817833 163.387618,438.200903 180.072282,438.200903 Z M180.072282,444.22447 C167.37566,444.22447 156.795141,454.236614 156.795141,466.853545 C156.795141,479.470475 167.37566,489.645419 180.072282,489.645419 C192.768904,489.645419 203.186645,479.470475 203.186645,466.853545 C203.186645,454.236614 192.768904,444.22447 180.072282,444.22447 Z M232.59506,438.363702 L240.652531,438.363702 L261.488014,479.714673 L282.242107,438.363702 L290.21819,438.363702 L290.21819,495.343387 L284.195434,495.343387 L284.114045,447.968849 L263.359951,489.31982 L259.453299,489.31982 L238.780594,447.968849 L238.780594,495.343387 L232.59506,495.343387 L232.59506,438.363702 Z M318.405776,438.363702 L326.463248,438.363702 L347.29873,479.714673 L368.052824,438.363702 L376.028907,438.363702 L376.028907,495.343387 L370.00615,495.343387 L369.924762,447.968849 L349.170668,489.31982 L345.264015,489.31982 L324.59131,447.968849 L324.59131,495.343387 L318.405776,495.343387 L318.405776,438.363702 Z M409.425363,471.900317 C409.425363,483.133455 416.099229,489.645419 426.923913,489.645419 C437.748597,489.645419 444.259685,483.133455 444.259685,471.900317 L444.259685,438.363702 L450.770774,438.363702 L450.770774,471.900317 C450.770774,486.796434 441.818027,495.587586 426.923913,495.587586 C411.94841,495.587586 402.914275,486.796434 402.914275,471.900317 L402.914275,438.363702 L409.425363,438.363702 L409.425363,471.900317 Z M477.574753,438.363702 L484.330007,438.363702 L518.51322,484.680046 L518.51322,438.363702 L524.94292,438.363702 L524.94292,495.343387 L518.269055,495.343387 L484.085841,449.108443 L484.085841,495.343387 L477.574753,495.343387 L477.574753,438.363702 Z M553.130506,438.363702 L559.641594,438.363702 L559.641594,495.343387 L553.130506,495.343387 L553.130506,438.363702 Z M580.015874,438.363702 L623.721554,438.363702 L623.721554,444.387269 L605.083564,444.387269 L605.083564,495.343387 L598.572476,495.343387 L598.572476,444.387269 L580.015874,444.387269 L580.015874,438.363702 Z M685.848187,438.363702 L664.198819,475.563296 L664.198819,495.343387 L657.769119,495.343387 L657.769119,475.726095 L635.712808,438.363702 L642.468062,438.363702 L660.943275,468.237337 L679.174322,438.363702 L685.848187,438.363702 Z M765.012168,438.363702 C776.487961,438.363702 783.487381,443.654673 783.487381,452.608623 C783.487381,459.283386 779.499339,464.08596 772.906862,465.469752 C781.127111,466.690745 785.929039,472.063116 785.929039,479.877473 C785.929039,489.564019 778.27851,495.343387 765.337722,495.343387 L741.00253,495.343387 L741.00253,438.363702 L765.012168,438.363702 Z M764.686613,463.027766 C772.337142,463.027766 776.813515,459.608985 776.813515,453.585418 C776.813515,447.72465 772.337142,444.387269 764.686613,444.387269 L747.513618,444.387269 L747.513618,463.027766 L764.686613,463.027766 Z M764.686613,489.31982 C773.964914,489.40122 779.336562,485.656841 779.336562,479.063477 C779.336562,472.714312 773.964914,468.969933 764.686613,469.051332 L747.513618,469.051332 L747.513618,489.31982 L764.686613,489.31982 Z M810.128583,438.363702 L816.639671,438.363702 L816.639671,495.343387 L810.128583,495.343387 L810.128583,438.363702 Z M884.463507,484.842845 L884.463507,467.504741 L890.242098,467.504741 L890.242098,488.180227 C884.626284,492.657202 876.73159,495.587586 869.081061,495.587586 C852.559175,495.587586 839.374221,482.889256 839.374221,466.853545 C839.374221,450.817833 852.640563,438.200903 869.406615,438.200903 C877.30131,438.200903 884.951838,441.212686 890.404875,446.01526 L886.660999,450.736434 C882.021849,446.585057 875.754926,444.14307 869.406615,444.14307 C856.384439,444.14307 845.966698,454.236614 845.966698,466.853545 C845.966698,479.551874 856.465828,489.645419 869.488004,489.645419 C874.615486,489.645419 880.068522,487.854628 884.463507,484.842845 Z M976.161332,438.363702 C987.637125,438.363702 994.636545,443.654673 994.636545,452.608623 C994.636545,459.283386 990.648504,464.08596 984.056027,465.469752 C992.276276,466.690745 997.078203,472.063116 997.078203,479.877473 C997.078203,489.564019 989.427675,495.343387 976.486887,495.343387 L952.151695,495.343387 L952.151695,438.363702 L976.161332,438.363702 Z M975.835778,463.027766 C983.486307,463.027766 987.96268,459.608985 987.96268,453.585418 C987.96268,447.72465 983.486307,444.387269 975.835778,444.387269 L958.662783,444.387269 L958.662783,463.027766 L975.835778,463.027766 Z M975.835778,489.31982 C985.114079,489.40122 990.485726,485.656841 990.485726,479.063477 C990.485726,472.714312 985.114079,468.969933 975.835778,469.051332 L958.662783,469.051332 L958.662783,489.31982 L975.835778,489.31982 Z M1063.68121,495.343387 L1057.25151,480.772868 L1026.24245,480.772868 L1019.89414,495.343387 L1012.97611,495.343387 L1038.53213,438.363702 L1045.28739,438.363702 L1070.76202,495.343387 L1063.68121,495.343387 Z M1028.92828,474.749301 L1054.64707,474.749301 L1041.70629,445.445463 L1028.92828,474.749301 Z M1090.56658,438.363702 L1097.32183,438.363702 L1131.50505,484.680046 L1131.50505,438.363702 L1137.93474,438.363702 L1137.93474,495.343387 L1131.26088,495.343387 L1097.07767,449.108443 L1097.07767,495.343387 L1090.56658,495.343387 L1090.56658,438.363702 Z M1189.15531,438.363702 C1205.75858,438.363702 1218.4552,450.655034 1218.4552,466.853545 C1218.4552,483.052055 1205.67719,495.343387 1188.91114,495.343387 L1166.12233,495.343387 L1166.12233,438.363702 L1189.15531,438.363702 Z M1189.23669,489.31982 C1201.93332,489.31982 1211.86273,479.714673 1211.86273,466.934944 C1211.86273,454.073815 1201.77054,444.387269 1188.99253,444.387269 L1172.63342,444.387269 L1172.63342,489.31982 L1189.23669,489.31982 Z" id="THE-COMMUNITY"></path>
            </g>
        </g>
    </g>
</svg>