<svg width="805" height="333" viewBox="0 0 805 333" xmlns="http://www.w3.org/2000/svg">
    <g id="Logos" stroke="none" stroke-width="1" fill="none" fill-rule="evenodd">
        <g id="Artboard" transform="translate(-347 -271)" fill="#fff">
            <g id="Instruments" transform="translate(319 267)">
                <path d="M723.213 209.946c1.802 3.052.914 6.725-1.823 8.445-2.737 1.72-6.01.863-7.813-2.189-1.803-3.051-1.449-7.144 1.288-8.864 2.736-1.72 6.547-.443 8.348 2.608Zm17.868-4.401c2.36.438 3.769 2.767 3.34 5.228-.428 2.458-2.388 3.968-4.748 3.533-2.36-.438-4.228-2.658-3.8-5.116.428-2.461 2.848-4.083 5.208-3.645Zm9.962 12.29c2.36.437 3.769 2.766 3.34 5.227-.427 2.458-2.388 3.97-4.748 3.533-2.36-.438-4.228-2.658-3.799-5.116.427-2.461 2.847-4.083 5.207-3.645Zm12.275 14.94c2.36.439 3.768 2.77 3.34 5.228-.428 2.461-2.388 3.972-4.748 3.534-2.36-.438-4.228-2.655-3.8-5.116.428-2.459 2.848-4.08 5.208-3.645Zm10.866 13.298c2.36.435 3.769 2.766 3.342 5.225-.43 2.46-2.388 3.97-4.75 3.533-2.36-.435-4.226-2.655-3.799-5.116.427-2.458 2.847-4.08 5.207-3.642ZM803.64 307c3.161 2.865 3.678 7.59 1.155 10.557-2.523 2.963-6.967 3.54-10.128.678-3.16-2.865-3.844-8.085-1.32-11.05 2.523-2.967 7.13-3.05 10.293-.185ZM755.56 204.097c37.278-27.374 69.842-6.813 69.842-6.813l-15.413 18.758s19.518 59.992 23.59 66.414c4.072 6.422 7.647 18.408 2.468 25.741-4.256 6.026-20.387 10.875-29.493 9.261 3.214-4.057 2.594-9.372-1.253-12.856-3.81-3.45-9.37-3.834-12.862-.12-14.96-18.192-44.526-55.262-68.541-85.373a8.342 8.342 0 0 0 1.439-1.327c2.995-3.52 1.935-9.87-1.477-12.96-3.226-2.924-7.326-1.774-10.374 1.23-14.782-18.526-25.644-32.103-26.374-32.763-2.335-2.117-6.61-1.068-6.689 2.14-.08 3.206 5.875 26.093 4.299 27.945-1.575 1.852-25.451 2.637-25.451 2.637l-2.45-2.222s18.059-4.412 19.334-6.536c1.278-2.122-8.122-25.944-6.502-31.583 1.619-5.637 14.366-13.768 20.31-8.93 2.509 2.042 22.323 25.004 44.538 50.924-1.25 2.223-.364 5.455 1.579 7.214 1.587 1.44 3.284 1.386 5.106.591 1.246 1.45 2.491 2.907 3.739 4.365-.04.041-.083.083-.123.127-1.938 2.28-2.378 5.207-.168 7.207 1.908 1.727 5.332 2.339 7.3.857l5.431 6.344c-1.702 2.277-1.451 5.743.673 7.665 1.773 1.606 4.313 1.586 6.242.415l4.283 5a5.52 5.52 0 0 0-.314.33c-1.938 2.28-1.293 5.239.919 7.241 1.98 1.795 4.459 2.306 6.437.643 14.351 16.721 24.848 28.834 25.388 28.98 1.722.465 7.755-2.268 8.172-4.625.415-2.355-27.695-59.068-27.695-59.068l-25.91-16.853Z" id="sax" transform="rotate(14 747.722 237.685)"/>
                <path d="M713.582 221.236s-13.65 19.054-36.424 19.46c-22.777.407-42.432-18.692-42.432-18.692l78.856-.768Zm-86.126 49.405.03-46.913s3.648 3.26 9.702 7.245l.913 39.672-10.645-.004Zm56.667.022-1.468-25.535c4.641-.364 9.341-1.405 13.998-3.334l.665 28.874-13.195-.005Zm-14.893-.005-.964-26.394c3.74.706 7.6 1.083 11.518 1.005l.585 25.392-11.139-.003Zm-14.055-.005-1.78-30.959a79.372 79.372 0 0 0 8.842 3.131l1.346 27.83-8.408-.002Zm-12.865-.005-2.174-37.802a101.28 101.28 0 0 0 10.292 5.536l.743 32.268-8.861-.002Zm69.052-38.37c3.749-3.432 7.389-7.648 10.86-12.78l-.034 51.18-9.424-.005-1.402-38.396Zm-10.146 38.392-1.734-30.16a48.285 48.285 0 0 0 6.024-3.554l1.742 33.716-6.032-.002Zm-78.135 3.79c-.007-.347.364-.632.829-.637l98.3-1.047c.474-.011.845.272.852.619.007.347-.365.632-.829.637l-98.3 1.047c-.47 0-.845-.276-.852-.62Zm7.669-54.132c16.286 14.555 32.07 21.934 46.932 21.934 22.85 0 36.834-17.711 39.843-21.934H630.75Zm60.96 101.988c.532-.471 1.327-.77 2.216-.77 1.6 0 2.897.97 2.897 2.165 0 1.196-1.297 2.164-2.897 2.164-1.6 0-2.898-.968-2.898-2.164 0-.043.002-.085.005-.128l-18.925-14.05v22.75c1.48.098 2.64 1.026 2.64 2.156 0 1.196-1.297 2.165-2.897 2.165-1.6 0-2.898-.969-2.898-2.165 0-.809.594-1.514 1.474-1.885v-22.54l-16.874 17.97c.487.388.786.91.786 1.483 0 1.196-1.297 2.165-2.897 2.165-1.6 0-2.898-.969-2.898-2.165 0-1.195 1.298-2.163 2.898-2.163.222 0 .439.018.646.054l18.34-19.531v-32.273h1.68v32.21l19.602 14.552Zm-63.396-102.219c-.206-.187-.249-.447-.11-.666.14-.219.436-.359.76-.359h89.934c.287 0 .555.11.71.292a.493.493 0 0 1 .05.603c-.147.235-15.109 23.55-41.976 23.55-15.735 0-32.345-7.879-49.368-23.42Z" id="drum"/>
                <path d="m531.503 113.31-3.385-17.035 26.896 15.698-16.946 6.175-99.505 153.768 43.701 43.235 71.734-109.32-23.973-13.167-37.172 59.073 6.582 37.249-45.472-32.786 32.934-7.862 49.22-79.752a6.48 6.48 0 0 1 8.8-2.182l24.517 14.425a6.48 6.48 0 0 1 2.2 9.034L476.355 341.4a6.48 6.48 0 0 1-9.6 1.558l-51.803-42.57a6.48 6.48 0 0 1-1.297-8.572L531.3 113.258l.204.052Zm.407 76.358 25.127 11.532 7.638-11.641-24.174-13.543-8.59 13.652Zm-96.528 87.164-12.847 19.853 46.206 39.075 9.392-14.313-42.75-44.615Z" id="bone" transform="scale(-1 1) rotate(-39 0 1611.435)"/>
                <path d="m299.898 70.11-1.135.968L444.044 244.06l1.986-1.695-90.702-107.996c7.033-.473 55.061-2.348 74.586 32.873 0 0-17.163 9.145 2.269 27.458 5.014 4.725 17.682 12.028 23.574-4.73 0 0 25.796 11.837 37.795 35.708 11.998 23.874 12.815 55.581-10.873 76.556-15.268 13.11-56.84 13.267-77.754-3.229-20.911-16.498-27.423-44.289-27.423-44.289 17.462-2.565 14.412-15.946 10.787-21.819-14.055-22.763-27.896-8.134-27.896-8.134-33.52-24.78-15.31-79.84-15.31-79.84l-52.45-67.802-6.7 1.08s-10.445-21.265-11.016-23.95c-.57-2.685 2.339-12.812 5.002-13.803 2.66-.99 15.406-.02 16.818 1.653 1.412 1.676 9.585 6.343 2.262 12.486-7.323 6.142-7.434-1.013-7.434-1.013s-.87-6.491-2.16-5.323c-1.293 1.166-6.522 2.616-4.178 4.64 2.343 2.026 16.826 12.48 16.826 12.48l-2.155 4.738Zm110.414 168.02c1.68-.415 2.568-2.54 1.986-4.749-.582-2.208-2.417-3.662-4.097-3.246-.844.209-1.487.847-1.846 1.712-1.262-.63-3.718-1.544-6.638-.992-4.266.806-5.423 7.983-.895 12.5 4.528 4.519 10.48 7.556 11.879 13.222 1.309 5.296-2.743 7.013-7.25 6.24-.025-.14-.04-.276-.077-.416-.55-2.078-2.276-3.446-3.857-3.055-1.581.392-2.419 2.395-1.869 4.473.548 2.077 2.276 3.445 3.855 3.054.863-.213 1.493-.914 1.809-1.838 1.476.92 4.107 2.202 7.344 2.205 5.052.003 6.927-6.976 4.003-12.642-2.927-5.667-14.36-13.237-14.707-18.162-.253-3.578 3.887-2.693 6.175-1.94.023.13.053.26.088.39.582 2.208 2.417 3.663 4.097 3.245Zm56.93-24.204c.593-1.463-.517-3.327-2.477-4.16-1.96-.836-4.028-.325-4.622 1.138-.595 1.463.516 3.326 2.475 4.16.133.057.265.092.396.135.158 4.451-2.06 8.095-7.067 6.055-5.357-2.183-7.538-8.355-11.357-13.378-3.816-5.022-10.992-4.971-12.345-.984-.928 2.727-.363 5.224.086 6.532-.893.219-1.603.742-1.92 1.522-.63 1.556.547 3.535 2.63 4.42 2.084.887 4.282.346 4.913-1.208.63-1.555-.548-3.535-2.63-4.42a4.631 4.631 0 0 0-.37-.143c-.433-2.312-.748-6.426 2.718-5.655 4.771 1.061 10.66 13.178 15.812 16.829 5.155 3.65 12.23 2.874 12.899-1.985.43-3.117-.476-5.835-1.18-7.391.944-.168 1.714-.669 2.038-1.467Z" id="bass" transform="rotate(48 388.307 175.9)"/>
                <path d="m316.513 181.895-8.675 4.752L323.71 225.3l16.926-9.81-7.85-13.216-1.785 1.263-14.488-21.642Zm10.35-5.67 10.667 22.691-2.523 1.786 7.976 13.427 13.934-8.076-26.754-31.636-3.3 1.808Zm-36.48 19.985 10.97 23.335-1.184.838 10.043 12.49-1.039.853 12.172-7.055-15.897-38.715-15.066 8.254Zm-10.446 5.722-9.826 5.383 23.825 35.243 14.037-8.136-10.025-12.467-3.125 2.212-14.886-22.235Zm-44.8 24.542 10.999 23.394-.622.44 8.175 15.578 20.436-11.845-24.136-35.703-14.851 8.136Zm-10.454 5.727-11.659 6.387 20.991 38.701 17.325-10.042-8.059-15.358-3.674 2.602-14.924-22.29Zm-40.976 22.447-11.286 6.183 25.334 37.475 12.067-6.994-8.583-14.698-1.916 1.357-15.616-23.323Zm10.62-5.817 11.525 24.516-2.39 1.693 8.699 14.899-1.08.644 21.724-12.592-1.149.636-21.01-38.737-16.32 8.94Zm-24.298 13.31-5.185 2.84 19.84 40.902 10.717-6.212-25.372-37.53Zm82.351-45.113 24.1 35.648 15.1-8.753-23.862-35.297-15.338 8.402Zm-117.06 20.915L314.383 132.05l56.937 77.472-192.017 106.761-43.985-78.34Z" id="keyboard" transform="rotate(-60 253.32 224.166)"/>
                <path d="M108.397 250.277c-4.683-6.203-6.5-13.111-12.842-15.971-14.985-6.757-21.718 17.788-45.026 7.187-24.36-11.083-23.12-38.153-13.983-58.667 9.14-20.517 28.397-39.463 52.828-28.542 23.377 10.449 9.647 31.84 24.632 38.598 9.98 4.5 19.942-6.086 35.303 2.192 15.361 8.279 11.513 23.302 6.095 33.839l61.6 30.823 2.537-4.818 6.33 1.804 1.152-5.078-1.527-.273-.198-2.846 6.215 1.116-1.424 2.554-1.527-.273-1.19 5.228 6.079 1.73 2.24-5.028-1.407-.635.383-2.878 5.726 2.583-1.878 2.203-1.407-.634-2.148 4.82 6.425 1.83 2.91-4.726-1.285-.863.77-2.819 5.234 3.515-2.137 1.9-1.285-.863-2.648 4.302 4.851 1.381s-.298 10.488-2.174 14.133c-1.456 3.837-9.039 11.04-9.039 11.04l-4.253-2.724-1.429 4.85 1.498.39.012 2.871-6.09-1.593 1.578-2.453 1.495.391 1.568-5.331-5.63-3.609-2.15 4.823 1.407.634-.384 2.876-5.726-2.581 1.878-2.202 1.408.634 2.24-5.032-5.328-3.409-3.088 4.37 1.219.966-.946 2.768-4.964-3.923 2.243-1.745 1.22.964 2.997-4.245-5.548-3.555 1.886-5.11-64.31-24.742c-3.762 10.073-12.344 22.96-28.71 16.933-5.964-2.196-9.593-5.522-12.278-9.08Zm-13.143-40.979c-3.295 7.401-.644 15.8 5.925 18.76 6.566 2.961 14.562-.637 17.857-8.035 3.296-7.401.645-15.8-5.921-18.762-6.57-2.962-14.565.636-17.86 8.037Z" id="guitar" transform="rotate(-115 139.76 222.309)"/>
                <path d="M38.399 331.073s23.046-21.38 52.492.03c0 0-16.375 10.463-52.492-.03Zm6.78-56.197c-5.471-.353-8.526-5.142-10.271-12.264l23.231.224-.024 6.483c-2.699 2.547-7.37 5.917-12.937 5.557ZM32.996 248.63l25.193.692-.03 8.126-24.203.32c-.437-2.839-.742-5.917-.96-9.138Zm.225-15.532 25.025 1.566-.028 7.32-25.463 1.014c-.044-3.381.106-6.743.466-9.9Zm9.498-17.773c5.462-.646 11.977 5.212 15.567 9l-.009 2.38-24.138.783c1.5-6.745 4.27-11.656 8.58-12.163Zm54.062 116.038-31.62-32.636-1.331-35.836 5.005.048.053-1.473 3.288-.014.585 3.38 3.242.605-.437-9.474-4.151 1.092.382 2.208-2.83.014.071-1.974-5.413.072-.294-7.913 4.535.125-.629-3.078 4.253-.018-.073 2.875 4.264.483-.94-9.437-3.12 1.065-.074 2.823-4.756.02-.545-2.657-3.2.128-.253-6.842 3.875.244.09-4.135 4.255-.017-.243 3.383 4.238.747-.466-10.104-3.171.966-.201 2.817-4.365.017.055-2.441-4.379.142-1.054-28.442 6.033-10.236-14.912.7 5.84 9.231-.07 18.593c-1.806-2.574-6.14-7.452-13.42-8.089-9.945-.87-15.166 5.533-15.952 15.565-.077.979-.146 2.26-.194 3.772l-6.102.2.247 4.588 5.762.363c-.015 3.087.038 6.62.185 10.341l-6.814.272-.435 4.892 7.53.207c.2 3.104.476 6.248.843 9.296l-6.738.09.247 4.589 7.155.07c1.404 8.69 3.708 15.859 7.386 17.806 7.12 3.768 15.41 2.93 20.059-1.4l-.087 22.333-23.898 30.952c40.106 13.874 62.689-.898 62.689-.898Z" id="trumpet" transform="rotate(-162 59.189 263.047)"/>
            </g>
        </g>
    </g>
</svg>
