<svg width="965" height="443" viewBox="0 0 965 443" xmlns="http://www.w3.org/2000/svg">
    <g fill="#000" fill-rule="evenodd">
        <path d="M686 393h278l-13.387 5H685l1-5Zm-69 5H13.387L0 393h620m62 15h240l-13.378 5H680m-70 0H54.378L41 408h570l-1 5Zm64 10h205l-13.33 5H670m-58 0H98.373L85 423h526l1 5Zm51-35h5l-1 5h-3l-1-5ZM20 323l4.603 15.396L40 343l-15.397 4.603L20 363l-4.603-15.396L0 343.001l15.397-4.605L20 323Zm924 0 4.603 15.396L964 343l-15.397 4.603L944 363l-4.603-15.396L924 343.001l15.397-4.605L944 323Z"/>
        <path d="M47.397 241.67c5.924 0 11.697-.608 17.318-1.823l21.647 36.458h7.064l-22.787-38.281c8.203-2.887 14.736-7.33 19.597-13.33 4.861-6.001 7.292-13.787 7.292-23.357 0-6.684-1.292-12.533-3.874-17.546a37.053 37.053 0 0 0-10.596-12.647c-4.481-3.418-9.76-6-15.837-7.747-6.076-1.747-12.685-2.62-19.824-2.62h-24.61v115.528h5.924V241.67h18.686ZM28.71 236.2v-69.955h18.686c13.824 0 24.647 3.038 32.47 9.115 7.824 6.076 11.736 14.735 11.736 25.977 0 11.241-3.912 19.862-11.735 25.863-7.824 6-18.647 9-32.471 9H28.71ZM0 142.548h52.41c9.722 0 18.723 1.291 27.002 3.874 8.28 2.582 15.457 6.38 21.534 11.393 6.076 5.013 10.823 11.203 14.241 18.571 3.418 7.368 5.127 15.837 5.127 25.408 0 7.595-1.063 14.051-3.19 19.368-2.127 5.317-4.481 9.723-7.064 13.217-3.038 3.95-6.456 7.291-10.254 10.026l28.484 50.13H71.323l-22.787-38.509v38.51H0V142.547Zm48.536 74.74h2.506c5.773 0 10.672-1.29 14.698-3.873s6.038-6.912 6.038-12.989c0-6.076-2.012-10.406-6.038-12.988-4.026-2.583-8.925-3.874-14.698-3.874h-2.506v33.725Zm84.311-74.74H222.4v39.877h-41.016v16.862h40.333v37.826h-40.333v17.546h42.611v39.877h-91.147V142.547Zm74.285 133.758v-5.468H161.56v-49.904h43.294v-5.468H161.56v-49.22h45.573v-5.469h-51.498v115.53h51.498Zm30.534 18.23V142.547h42.156c14.28 0 27.002 1.595 38.168 4.785 11.166 3.19 20.584 7.975 28.256 14.356 7.671 6.38 13.52 14.317 17.545 23.812 4.026 9.495 6.039 20.47 6.039 32.927s-2.013 23.432-6.039 32.927c-4.025 9.494-9.874 17.432-17.545 23.812-7.672 6.38-17.09 11.204-28.256 14.47s-23.888 4.899-38.168 4.899h-42.156Zm28.712-23.698V166.245h13.444c19.293 0 34.294 4.368 45.004 13.103s16.065 21.76 16.065 39.079c0 17.318-5.355 30.382-16.065 39.193-10.71 8.811-25.711 13.217-45.004 13.217h-13.444Zm-5.925 5.468h19.37c22.178 0 38.926-5.05 50.244-15.153 11.317-10.102 16.976-24.344 16.976-42.725 0-18.382-5.659-32.585-16.976-42.611-11.318-10.027-28.066-15.04-50.245-15.04h-19.369v115.53Zm25.75-25.065c11.393 0 20.204-2.696 26.432-8.09 6.229-5.392 9.343-13.633 9.343-24.723s-3.114-19.293-9.343-24.61c-6.228-5.317-15.04-7.975-26.433-7.975v65.398Zm111.199 23.47c2.127.456 4.405.836 6.836 1.14 2.127.304 4.368.57 6.722.797 2.355.228 4.747.342 7.178.342a51.94 51.94 0 0 0 12.419-1.481c4.026-.988 7.633-2.62 10.824-4.9 3.19-2.278 5.734-5.202 7.633-8.772 1.9-3.57 2.849-7.938 2.849-13.103 0-4.405-1.102-8.583-3.305-12.532-2.202-3.95-5.013-7.748-8.43-11.394a143.172 143.172 0 0 0-10.938-10.482 202.881 202.881 0 0 1-10.938-10.14c-3.418-3.418-6.228-6.836-8.431-10.254-2.203-3.418-3.304-6.95-3.304-10.596 0-5.469 1.747-9.684 5.24-12.646 3.495-2.963 9.115-4.444 16.863-4.444 1.215 0 2.469.038 3.76.114 1.291.076 2.544.19 3.76.342 1.215.152 2.43.228 3.645.228v-5.925c-1.063 0-2.202-.076-3.418-.228a42.95 42.95 0 0 0-3.531-.341 67.93 67.93 0 0 0-3.988-.114c-8.203 0-14.963 1.86-20.28 5.582-5.317 3.722-7.976 9.533-7.976 17.432 0 4.254 1.102 8.241 3.304 11.963 2.203 3.722 5.013 7.368 8.431 10.938a158.166 158.166 0 0 0 10.938 10.368 202.881 202.881 0 0 1 10.938 10.14c3.418 3.418 6.228 6.95 8.43 10.596 2.204 3.646 3.305 7.444 3.305 11.393 0 7.292-2.469 12.837-7.406 16.635-4.937 3.798-11.735 5.696-20.394 5.696-5.165 0-9.874-.38-14.128-1.139a85.415 85.415 0 0 1-6.608-1.14v5.925Zm-19.14-27.344a75.424 75.424 0 0 0 10.481 2.507c3.038.76 6.494 1.367 10.368 1.823 3.874.455 7.786.683 11.735.683 6.988 0 10.482-2.582 10.482-7.747 0-1.975-1.063-3.988-3.19-6.039-2.127-2.05-4.823-4.33-8.09-6.836a447.324 447.324 0 0 1-10.481-8.317c-3.722-3.038-7.216-6.532-10.482-10.482-3.266-3.95-5.963-8.393-8.09-13.33-2.126-4.937-3.19-10.596-3.19-16.976 0-7.14 1.292-13.445 3.874-18.913 2.583-5.47 6.153-10.027 10.71-13.672 4.557-3.646 9.912-6.419 16.065-8.318 6.152-1.899 12.722-2.848 19.71-2.848 3.646 0 7.292.19 10.938.57 3.646.38 6.912.721 9.798 1.025 3.342.456 6.608.912 9.799 1.367v42.612a168.692 168.692 0 0 0-4.102-.456 168.698 168.698 0 0 0-4.102-.456 48.13 48.13 0 0 0-4.785-.228c-.911 0-2.05.038-3.418.114a20.68 20.68 0 0 0-3.874.57c-1.215.304-2.278.835-3.19 1.595-.911.76-1.367 1.823-1.367 3.19 0 1.215 1.025 2.734 3.076 4.557 2.051 1.823 4.557 3.95 7.52 6.38 2.962 2.431 6.228 5.242 9.798 8.432 3.57 3.19 6.836 6.836 9.798 10.938 2.963 4.101 5.47 8.734 7.52 13.9 2.05 5.165 3.076 10.937 3.076 17.317 0 6.685-1.063 12.951-3.19 18.8-2.127 5.848-5.43 10.937-9.912 15.267-4.482 4.33-10.216 7.747-17.204 10.254-6.988 2.506-15.267 3.76-24.838 3.76-5.772 0-11.127-.266-16.064-.798-4.938-.532-9.305-1.177-13.103-1.937-4.405-.76-8.431-1.67-12.077-2.734v-45.574Zm121.694-64.942h-28.028v-39.877h106.187v39.877h-28.028v112.11h-50.131v-112.11Zm28.028 93.881v-110.06h32.585v-5.469h-71.095v5.47h32.585v110.06h5.925ZM727.81 142.547h39.877l41.927 58.562v-58.562h47.625v151.988h-40.105l-41.7-58.334v58.334h-47.624V142.547Zm27.116 133.758V171.03l75.197 105.275h5.924V160.776h-5.924v105.275l-75.197-105.275h-5.924v115.53h5.924Zm118.264-133.758h89.552v39.877h-41.016v16.862h40.332v37.826h-40.332v17.546h42.61v39.877h-91.146V142.547Zm74.285 133.758h-51.499V160.776h51.499v5.47h-45.574v49.219h43.295v5.468h-43.295v49.904h45.574v5.468ZM607.16 141.852c-124.805-199.186 135.054-180.508 17.243 5.393l7.892 17.049c94.79-80.963 112.62 90.832 41.462 118.392 0 0 27.739 100.868-6.357 141.693-34.095 40.826-63.922 5.522-48.25-22.93 15.671-28.446 41.183-19.275 41.769-1.544.585 17.73-14.303 25.622-13.306 25.518 26.949-11.173 37.46-59.563 13.46-138.055-53.897 17.041-132.596-42.922-53.913-145.516Zm13.419 33.494-7.353-16.894c-69.707 81.866 1.151 135.577 41.934 115.037-14.497-50.07-16.775-57.913-25.709-78.485-47.52 46.172 5.095 29.21 2.054 45.935-23.01 5.467-63.955-2.575-10.926-65.593Zm45.872 92.938c52.817-24.622 32.81-142.543-26.958-80.433 11.257 24.403 26.958 80.433 26.958 80.433Zm-52.012-137.92c80.48-120.632-80.514-140.632 0 0Z"/>
        <path d="M96.13 332.6c-3.24-3.24-7.8-5.22-12.42-5.22-9.48 0-17.1 7.38-17.1 16.68 0 9.24 7.62 16.74 17.1 16.74 4.62 0 9.12-1.92 12.42-5.04l2.94 3.18c-4.14 3.9-9.78 6.36-15.6 6.36-12.12 0-21.72-9.36-21.72-21.24 0-11.76 9.72-21.06 21.9-21.06 5.76 0 11.34 2.34 15.36 6.12l-2.88 3.48Zm36.62-9.6c12.24 0 21.96 9.3 21.96 21.12s-9.72 21.18-21.96 21.18c-12.3 0-22.02-9.36-22.02-21.18S120.45 323 132.75 323Zm0 4.44c-9.36 0-17.16 7.38-17.16 16.68s7.8 16.8 17.16 16.8 17.04-7.5 17.04-16.8-7.68-16.68-17.04-16.68Zm38.72-4.32h5.94l15.36 30.48 15.3-30.48h5.88v42h-4.44l-.06-34.92-15.3 30.48h-2.88l-15.24-30.48v34.92h-4.56v-42Zm63.26 0h5.94l15.36 30.48 15.3-30.48h5.88v42h-4.44l-.06-34.92-15.3 30.48h-2.88l-15.24-30.48v34.92h-4.56v-42Zm67.1 24.72c0 8.28 4.92 13.08 12.9 13.08s12.78-4.8 12.78-13.08v-24.72h4.8v24.72c0 10.98-6.6 17.46-17.58 17.46-11.04 0-17.7-6.48-17.7-17.46v-24.72h4.8v24.72Zm50.24-24.72h4.98l25.2 34.14v-34.14h4.74v42h-4.92l-25.2-34.08v34.08h-4.8v-42Zm55.7 0h4.8v42h-4.8v-42Zm19.82 0h32.22v4.44h-13.74v37.56h-4.8v-37.56h-13.68v-4.44Zm78.02 0-15.96 27.42v14.58h-4.74v-14.46l-16.26-27.54h4.98l13.62 22.02 13.44-22.02h4.92Zm58.36 0c8.46 0 13.62 3.9 13.62 10.5 0 4.92-2.94 8.46-7.8 9.48 6.06.9 9.6 4.86 9.6 10.62 0 7.14-5.64 11.4-15.18 11.4h-17.94v-42h17.7Zm-.24 18.18c5.64 0 8.94-2.52 8.94-6.96 0-4.32-3.3-6.78-8.94-6.78h-12.66v13.74h12.66Zm0 19.38c6.84.06 10.8-2.7 10.8-7.56 0-4.68-3.96-7.44-10.8-7.38h-12.66v14.94h12.66Zm33.5-37.56h4.8v42h-4.8v-42Zm54.8 34.26V344.6h4.26v15.24c-4.14 3.3-9.96 5.46-15.6 5.46-12.18 0-21.9-9.36-21.9-21.18S628.57 323 640.93 323c5.82 0 11.46 2.22 15.48 5.76l-2.76 3.48c-3.42-3.06-8.04-4.86-12.72-4.86-9.6 0-17.28 7.44-17.28 16.74 0 9.36 7.74 16.8 17.34 16.8 3.78 0 7.8-1.32 11.04-3.54Zm67.6-34.26c8.46 0 13.62 3.9 13.62 10.5 0 4.92-2.94 8.46-7.8 9.48 6.06.9 9.6 4.86 9.6 10.62 0 7.14-5.64 11.4-15.18 11.4h-17.94v-42h17.7Zm-.24 18.18c5.64 0 8.94-2.52 8.94-6.96 0-4.32-3.3-6.78-8.94-6.78h-12.66v13.74h12.66Zm0 19.38c6.84.06 10.8-2.7 10.8-7.56 0-4.68-3.96-7.44-10.8-7.38h-12.66v14.94h12.66Zm64.76 4.44-4.74-10.74h-22.86l-4.68 10.74h-5.1l18.84-42h4.98l18.78 42h-5.22Zm-25.62-15.18h18.96l-9.54-21.6-9.42 21.6Zm45.44-26.82h4.98l25.2 34.14v-34.14h4.74v42h-4.92l-25.2-34.08v34.08h-4.8v-42Zm72.68 0c12.24 0 21.6 9.06 21.6 21s-9.42 21-21.78 21h-16.8v-42h16.98Zm.06 37.56h-12.24v-33.12h12.06c9.42 0 16.86 7.14 16.86 16.62 0 9.42-7.32 16.5-16.68 16.5ZM125 83h25.776v3.552h-10.992V116.6h-3.84V86.552H125V83Zm35.244 0h3.84v15.216h20.256V83h3.84v33.6h-3.84v-14.88h-20.256v14.88h-3.84V83Zm42.012 0h22.8v3.552h-18.96v11.28h16.944v3.504h-16.944v11.712h19.584v3.552h-23.424V83Z"/>
    </g>
</svg>
