<?xml version="1.0" encoding="UTF-8"?>
<svg width="18px" height="19px" viewBox="0 0 18 19" version="1.1" xmlns="http://www.w3.org/2000/svg" xmlns:xlink="http://www.w3.org/1999/xlink">
    <!-- Generator: Sketch 52.6 (67491) - http://www.bohemiancoding.com/sketch -->
    <title>Artboard</title>
    <desc>Created with Sketch.</desc>
    <g id="Artboard" stroke="none" stroke-width="1" fill="none" fill-rule="evenodd">
        <g id="check_circle_FILL0_wght400_GRAD0_opsz48" transform="translate(0.000000, 0.800000)" fill="#7ED321" fill-rule="nonzero">
            <path d="M7.6725,11.0475 L5.4675,8.8425 C5.3325,8.7075 5.1675,8.64 4.9725,8.64 C4.7775,8.64 4.605,8.715 4.455,8.865 C4.32,9 4.2525,9.165 4.2525,9.36 C4.2525,9.555 4.32,9.72 4.455,9.855 L7.2,12.6225 C7.335,12.7575 7.4925,12.825 7.6725,12.825 C7.8525,12.825 8.01,12.7575 8.145,12.6225 L13.5225,7.245 C13.6725,7.095 13.7475,6.9225 13.7475,6.7275 C13.7475,6.5325 13.6725,6.36 13.5225,6.21 C13.3725,6.075 13.19625,6.01125 12.99375,6.01875 C12.79125,6.02625 12.6225,6.0975 12.4875,6.2325 L7.6725,11.0475 Z M9,18 C7.77,18 6.6075,17.76375 5.5125,17.29125 C4.4175,16.81875 3.46125,16.17375 2.64375,15.35625 C1.82625,14.53875 1.18125,13.5825 0.70875,12.4875 C0.23625,11.3925 0,10.23 0,9 C0,7.755 0.23625,6.585 0.70875,5.49 C1.18125,4.395 1.82625,3.4425 2.64375,2.6325 C3.46125,1.8225 4.4175,1.18125 5.5125,0.70875 C6.6075,0.23625 7.77,0 9,0 C10.245,0 11.415,0.23625 12.51,0.70875 C13.605,1.18125 14.5575,1.8225 15.3675,2.6325 C16.1775,3.4425 16.81875,4.395 17.29125,5.49 C17.76375,6.585 18,7.755 18,9 C18,10.23 17.76375,11.3925 17.29125,12.4875 C16.81875,13.5825 16.1775,14.53875 15.3675,15.35625 C14.5575,16.17375 13.605,16.81875 12.51,17.29125 C11.415,17.76375 10.245,18 9,18 Z M9,16.65 C11.13,16.65 12.9375,15.90375 14.4225,14.41125 C15.9075,12.91875 16.65,11.115 16.65,9 C16.65,6.87 15.9075,5.0625 14.4225,3.5775 C12.9375,2.0925 11.13,1.35 9,1.35 C6.885,1.35 5.08125,2.0925 3.58875,3.5775 C2.09625,5.0625 1.35,6.87 1.35,9 C1.35,11.115 2.09625,12.91875 3.58875,14.41125 C5.08125,15.90375 6.885,16.65 9,16.65 Z" id="Shape"></path>
        </g>
    </g>
</svg>