<?xml version="1.0" encoding="UTF-8"?>
<svg width="300px" height="300px" viewBox="0 0 300 300" version="1.1" xmlns="http://www.w3.org/2000/svg" xmlns:xlink="http://www.w3.org/1999/xlink">
    <!-- Generator: Sketch 52.6 (67491) - http://www.bohemiancoding.com/sketch -->
    <title>Group</title>
    <desc>Created with Sketch.</desc>
    <g id="Logos" stroke="none" stroke-width="1" fill="none" fill-rule="evenodd">
        <g id="ASSETS" transform="translate(-1534.000000, -714.000000)">
            <g id="Group" transform="translate(1534.000000, 714.000000)">
                <circle id="Oval" fill="#D03302" cx="150" cy="150" r="150"></circle>
                <path d="M141.584,172.608 C148.240033,172.608 154.725302,171.92534 161.04,170.56 L185.36,211.52 L193.296,211.52 L167.696,168.512 C176.912046,165.269317 184.250639,160.277367 189.712,153.536 C195.173361,146.794633 197.904,138.048054 197.904,127.296 C197.904,119.786629 196.453348,113.216028 193.552,107.584 C190.650652,101.951972 186.682692,97.2160192 181.648,93.376 C176.613308,89.5359808 170.682701,86.6346765 163.856,84.672 C157.029299,82.7093235 149.605373,81.728 141.584,81.728 L113.936,81.728 L113.936,211.52 L120.592,211.52 L120.592,172.608 L141.584,172.608 Z M120.592,166.464 L120.592,87.872 L141.584,87.872 C157.114744,87.872 169.274623,91.2852992 178.064,98.112 C186.853377,104.938701 191.248,114.666604 191.248,127.296 C191.248,139.925396 186.853377,149.610633 178.064,156.352 C169.274623,163.093367 157.114744,166.464 141.584,166.464 L120.592,166.464 Z M88.336,61.248 L147.216,61.248 C158.138721,61.248 168.25062,62.6986522 177.552,65.6 C186.85338,68.5013478 194.917299,72.7679718 201.744,78.4 C208.570701,84.0320282 213.903981,90.9866253 217.744,99.264 C221.584019,107.541375 223.504,117.055946 223.504,127.808 C223.504,136.341376 222.309345,143.594637 219.92,149.568 C217.530655,155.541363 214.885348,160.490647 211.984,164.416 C208.57065,168.853356 204.730688,172.607985 200.464,175.68 L232.464,232 L168.464,232 L142.864,188.736 L142.864,232 L88.336,232 L88.336,61.248 Z M142.864,145.216 L145.68,145.216 C152.165366,145.216 157.669311,143.765348 162.192,140.864 C166.714689,137.962652 168.976,133.098701 168.976,126.272 C168.976,119.445299 166.714689,114.581348 162.192,111.68 C157.669311,108.778652 152.165366,107.328 145.68,107.328 L142.864,107.328 L142.864,145.216 Z" id="R" fill="#FFFFFF"></path>
            </g>
        </g>
    </g>
</svg>
